# Blender 4.2.3 LTS
# www.blender.org
mtllib coal_burner.mtl
o Insulation_3
v -0.750000 1.875000 1.062500
v -0.750000 1.875000 0.687500
v -0.750000 1.750000 1.062500
v -0.750000 1.750000 0.687500
v -1.125000 1.875000 0.687500
v -1.125000 1.875000 1.062500
v -1.125000 1.750000 0.687500
v -1.125000 1.750000 1.062500
v 1.031250 2.000000 0.968750
v 1.031250 2.000000 0.781250
v 1.031250 1.937500 0.968750
v 1.031250 1.937500 0.781250
v 0.843750 2.000000 0.781250
v 0.843750 2.000000 0.968750
v 0.843750 1.937500 0.781250
v 0.843750 1.937500 0.968750
v -0.843750 2.000000 0.968750
v -0.843750 2.000000 0.781250
v -0.843750 1.937500 0.968750
v -0.843750 1.937500 0.781250
v -1.031250 2.000000 0.781250
v -1.031250 2.000000 0.968750
v -1.031250 1.937500 0.781250
v -1.031250 1.937500 0.968750
v -0.500000 1.062500 0.375000
v -0.500000 1.062500 -0.375000
v -0.500000 1.000000 -0.375000
v -1.375000 1.062500 -0.375000
v -1.375000 1.062500 0.375000
v -1.375000 1.000000 -0.375000
v -1.375000 1.000000 0.375000
v 1.375000 1.062500 0.375000
v 1.375000 1.062500 -0.375000
v 1.375000 1.000000 0.375000
v 1.375000 1.000000 -0.375000
v 0.500000 1.062500 -0.375000
v 0.500000 1.062500 0.375000
v 0.500000 1.000000 -0.375000
v 0.500000 1.000000 1.375000
v 0.500000 1.000000 0.375000
v 1.375000 1.500000 1.375000
v 1.375000 1.500000 0.375000
v 1.375000 1.000000 1.375000
v 0.312500 1.937500 0.500000
v 0.312500 1.937500 0.375000
v 0.312500 1.500000 0.500000
v 0.312500 1.500000 0.375000
v -0.312500 1.937500 0.375000
v -0.312500 1.937500 0.500000
v -0.312500 1.500000 0.375000
v 0.312500 1.937500 1.375000
v 0.312500 1.937500 1.250000
v 0.312500 1.500000 1.375000
v -0.312500 1.937500 1.250000
v -0.312500 1.937500 1.375000
v -0.375000 1.937500 1.187500
v -0.375000 1.937500 0.562500
v -0.375000 1.500000 1.187500
v -0.500000 1.937500 0.562500
v -0.500000 1.937500 1.187500
v 0.500000 1.937500 1.187500
v 0.500000 1.937500 0.562500
v 0.500000 1.500000 1.187500
v 0.375000 1.937500 0.562500
v 0.375000 1.937500 1.187500
v 0.375000 1.500000 1.187500
v -0.375000 3.000000 0.500000
v -0.500000 3.000000 0.375000
v -0.500000 1.500000 0.375000
v 0.500000 3.000000 0.375000
v 0.500000 1.500000 0.500000
v 0.500000 1.500000 0.375000
v 0.500000 3.000000 1.250000
v 0.500000 1.500000 1.375000
v 0.375000 3.000000 1.375000
v -0.375000 3.000000 1.250000
v -0.500000 1.500000 1.375000
v -0.062500 2.812500 1.375000
v -0.062500 2.812500 1.250000
v -0.062500 1.937500 1.375000
v -0.062500 1.937500 1.250000
v -0.187500 2.812500 1.250000
v -0.187500 2.812500 1.375000
v -0.187500 1.937500 1.250000
v -0.187500 1.937500 1.375000
v 0.187500 2.812500 1.375000
v 0.187500 2.812500 1.250000
v 0.187500 1.937500 1.375000
v 0.187500 1.937500 1.250000
v 0.062500 2.812500 1.250000
v 0.062500 2.812500 1.375000
v 0.062500 1.937500 1.250000
v 0.062500 1.937500 1.375000
v 0.500000 2.812500 1.062500
v 0.500000 2.812500 0.937500
v 0.500000 1.937500 1.062500
v 0.500000 1.937500 0.937500
v 0.375000 2.812500 0.937500
v 0.375000 2.812500 1.062500
v 0.375000 1.937500 0.937500
v 0.375000 1.937500 1.062500
v 0.500000 2.812500 0.812500
v 0.500000 2.812500 0.687500
v 0.500000 1.937500 0.812500
v 0.500000 1.937500 0.687500
v 0.375000 2.812500 0.687500
v 0.375000 2.812500 0.812500
v 0.375000 1.937500 0.687500
v 0.375000 1.937500 0.812500
v -0.375000 2.812500 0.812500
v -0.375000 2.812500 0.687500
v -0.375000 1.937500 0.812500
v -0.375000 1.937500 0.687500
v -0.500000 2.812500 0.687500
v -0.500000 2.812500 0.812500
v -0.500000 1.937500 0.687500
v -0.500000 1.937500 0.812500
v -0.375000 2.812500 1.062500
v -0.375000 2.812500 0.937500
v -0.375000 1.937500 1.062500
v -0.375000 1.937500 0.937500
v -0.500000 2.812500 0.937500
v -0.500000 2.812500 1.062500
v -0.500000 1.937500 0.937500
v -0.500000 1.937500 1.062500
v -0.062500 2.812500 0.500000
v -0.062500 2.812500 0.375000
v -0.062500 1.937500 0.500000
v -0.062500 1.937500 0.375000
v -0.187500 2.812500 0.375000
v -0.187500 2.812500 0.500000
v -0.187500 1.937500 0.375000
v -0.187500 1.937500 0.500000
v 0.187500 2.812500 0.500000
v 0.187500 2.812500 0.375000
v 0.187500 1.937500 0.500000
v 0.187500 1.937500 0.375000
v 0.062500 2.812500 0.375000
v 0.062500 2.812500 0.500000
v 0.062500 1.937500 0.375000
v 0.062500 1.937500 0.500000
v 0.375000 2.812500 0.500000
v 0.375000 1.500000 0.500000
v 0.375000 1.500000 0.375000
v 0.312500 2.812500 0.375000
v 0.312500 2.812500 0.500000
v -0.312500 2.812500 0.500000
v -0.312500 2.812500 0.375000
v -0.312500 1.500000 0.500000
v -0.375000 2.812500 0.375000
v -0.375000 2.812500 0.500000
v -0.375000 1.500000 0.375000
v 0.375000 2.812500 1.375000
v 0.375000 1.500000 1.375000
v 0.375000 1.500000 1.250000
v 0.312500 2.812500 1.250000
v 0.312500 2.812500 1.375000
v 0.312500 1.500000 1.250000
v -0.312500 2.812500 1.375000
v -0.312500 2.812500 1.250000
v -0.312500 1.500000 1.375000
v -0.312500 1.500000 1.250000
v -0.375000 1.500000 1.250000
v -0.375000 1.500000 1.375000
v 0.500000 2.812500 0.562500
v 0.500000 1.500000 0.562500
v 0.375000 2.812500 0.562500
v 0.375000 1.500000 0.562500
v 0.500000 2.812500 1.187500
v 0.500000 1.500000 1.250000
v 0.375000 2.812500 1.187500
v 0.375000 2.812500 1.250000
v -0.375000 2.812500 1.187500
v -0.500000 2.812500 1.187500
v -0.500000 1.500000 1.187500
v -0.500000 1.500000 1.250000
v -0.375000 2.812500 0.562500
v -0.375000 1.500000 0.562500
v -0.375000 1.500000 0.500000
v -0.500000 2.812500 0.562500
v -0.500000 1.500000 0.500000
v -0.500000 1.500000 0.562500
v 0.375000 3.000000 1.250000
v -0.375000 3.000000 1.375000
v -0.375000 2.812500 1.375000
v 0.375000 3.000000 0.500000
v 0.375000 3.000000 0.375000
v 0.375000 2.812500 0.375000
v -0.375000 3.000000 0.375000
v 0.500000 3.000000 0.500000
v 0.500000 2.812500 1.250000
v 0.500000 2.812500 0.500000
v -0.375000 2.812500 1.250000
v -0.500000 3.000000 0.500000
v -0.500000 3.000000 1.250000
v -0.500000 2.812500 0.500000
v -0.500000 2.812500 1.250000
v 0.062500 2.312500 0.500000
v 0.062500 2.312500 0.375000
v 0.062500 2.062500 0.500000
v 0.062500 2.062500 0.375000
v -0.062500 2.312500 0.375000
v -0.062500 2.312500 0.500000
v -0.062500 2.062500 0.375000
v -0.062500 2.062500 0.500000
v 0.062500 2.687500 0.500000
v 0.062500 2.687500 0.375000
v 0.062500 2.437500 0.500000
v 0.062500 2.437500 0.375000
v -0.062500 2.687500 0.375000
v -0.062500 2.687500 0.500000
v -0.062500 2.437500 0.375000
v -0.062500 2.437500 0.500000
v 0.312500 2.312500 0.500000
v 0.312500 2.312500 0.375000
v 0.312500 2.062500 0.500000
v 0.312500 2.062500 0.375000
v 0.187500 2.312500 0.375000
v 0.187500 2.312500 0.500000
v 0.187500 2.062500 0.375000
v 0.187500 2.062500 0.500000
v -0.187500 2.312500 0.500000
v -0.187500 2.312500 0.375000
v -0.187500 2.062500 0.500000
v -0.187500 2.062500 0.375000
v -0.312500 2.312500 0.375000
v -0.312500 2.312500 0.500000
v -0.312500 2.062500 0.375000
v -0.312500 2.062500 0.500000
v 0.312500 2.687500 0.500000
v 0.312500 2.687500 0.375000
v 0.312500 2.437500 0.500000
v 0.312500 2.437500 0.375000
v 0.187500 2.687500 0.375000
v 0.187500 2.687500 0.500000
v 0.187500 2.437500 0.375000
v 0.187500 2.437500 0.500000
v -0.187500 2.687500 0.500000
v -0.187500 2.687500 0.375000
v -0.187500 2.437500 0.500000
v -0.187500 2.437500 0.375000
v -0.312500 2.687500 0.375000
v -0.312500 2.687500 0.500000
v -0.312500 2.437500 0.375000
v -0.312500 2.437500 0.500000
v -0.187500 2.687500 1.375000
v -0.187500 2.687500 1.250000
v -0.187500 2.437500 1.375000
v -0.187500 2.437500 1.250000
v -0.312500 2.687500 1.250000
v -0.312500 2.687500 1.375000
v -0.312500 2.437500 1.250000
v -0.312500 2.437500 1.375000
v 0.062500 2.687500 1.375000
v 0.062500 2.687500 1.250000
v 0.062500 2.437500 1.375000
v 0.062500 2.437500 1.250000
v -0.062500 2.687500 1.250000
v -0.062500 2.687500 1.375000
v -0.062500 2.437500 1.250000
v -0.062500 2.437500 1.375000
v 0.312500 2.687500 1.375000
v 0.312500 2.687500 1.250000
v 0.312500 2.437500 1.375000
v 0.312500 2.437500 1.250000
v 0.187500 2.687500 1.250000
v 0.187500 2.687500 1.375000
v 0.187500 2.437500 1.250000
v 0.187500 2.437500 1.375000
v 0.312500 2.312500 1.375000
v 0.312500 2.312500 1.250000
v 0.312500 2.062500 1.375000
v 0.312500 2.062500 1.250000
v 0.187500 2.312500 1.250000
v 0.187500 2.312500 1.375000
v 0.187500 2.062500 1.250000
v 0.187500 2.062500 1.375000
v 0.062500 2.312500 1.375000
v 0.062500 2.312500 1.250000
v 0.062500 2.062500 1.375000
v 0.062500 2.062500 1.250000
v -0.062500 2.312500 1.250000
v -0.062500 2.312500 1.375000
v -0.062500 2.062500 1.250000
v -0.062500 2.062500 1.375000
v -0.187500 2.312500 1.375000
v -0.187500 2.312500 1.250000
v -0.187500 2.062500 1.375000
v -0.187500 2.062500 1.250000
v -0.312500 2.312500 1.250000
v -0.312500 2.312500 1.375000
v -0.312500 2.062500 1.250000
v -0.312500 2.062500 1.375000
v -0.375000 2.312500 1.187500
v -0.375000 2.312500 1.062500
v -0.375000 2.062500 1.187500
v -0.375000 2.062500 1.062500
v -0.500000 2.312500 1.062500
v -0.500000 2.312500 1.187500
v -0.500000 2.062500 1.062500
v -0.500000 2.062500 1.187500
v -0.375000 2.312500 0.937500
v -0.375000 2.312500 0.812500
v -0.375000 2.062500 0.937500
v -0.375000 2.062500 0.812500
v -0.500000 2.312500 0.812500
v -0.500000 2.312500 0.937500
v -0.500000 2.062500 0.812500
v -0.500000 2.062500 0.937500
v -0.375000 2.312500 0.687500
v -0.375000 2.312500 0.562500
v -0.375000 2.062500 0.687500
v -0.375000 2.062500 0.562500
v -0.500000 2.312500 0.562500
v -0.500000 2.312500 0.687500
v -0.500000 2.062500 0.562500
v -0.500000 2.062500 0.687500
v -0.375000 2.687500 0.687500
v -0.375000 2.687500 0.562500
v -0.375000 2.437500 0.687500
v -0.375000 2.437500 0.562500
v -0.500000 2.687500 0.562500
v -0.500000 2.687500 0.687500
v -0.500000 2.437500 0.562500
v -0.500000 2.437500 0.687500
v -0.375000 2.687500 0.937500
v -0.375000 2.687500 0.812500
v -0.375000 2.437500 0.937500
v -0.375000 2.437500 0.812500
v -0.500000 2.687500 0.812500
v -0.500000 2.687500 0.937500
v -0.500000 2.437500 0.812500
v -0.500000 2.437500 0.937500
v -0.375000 2.687500 1.187500
v -0.375000 2.687500 1.062500
v -0.375000 2.437500 1.187500
v -0.375000 2.437500 1.062500
v -0.500000 2.687500 1.062500
v -0.500000 2.687500 1.187500
v -0.500000 2.437500 1.062500
v -0.500000 2.437500 1.187500
v 0.500000 2.687500 1.187500
v 0.500000 2.687500 1.062500
v 0.500000 2.437500 1.187500
v 0.500000 2.437500 1.062500
v 0.375000 2.687500 1.062500
v 0.375000 2.687500 1.187500
v 0.375000 2.437500 1.062500
v 0.375000 2.437500 1.187500
v 0.500000 2.687500 0.937500
v 0.500000 2.687500 0.812500
v 0.500000 2.437500 0.937500
v 0.500000 2.437500 0.812500
v 0.375000 2.687500 0.812500
v 0.375000 2.687500 0.937500
v 0.375000 2.437500 0.812500
v 0.375000 2.437500 0.937500
v 0.500000 2.687500 0.687500
v 0.500000 2.687500 0.562500
v 0.500000 2.437500 0.687500
v 0.500000 2.437500 0.562500
v 0.375000 2.687500 0.562500
v 0.375000 2.687500 0.687500
v 0.375000 2.437500 0.562500
v 0.375000 2.437500 0.687500
v 0.500000 2.312500 0.687500
v 0.500000 2.312500 0.562500
v 0.500000 2.062500 0.687500
v 0.500000 2.062500 0.562500
v 0.375000 2.312500 0.562500
v 0.375000 2.312500 0.687500
v 0.375000 2.062500 0.562500
v 0.375000 2.062500 0.687500
v 0.500000 2.312500 0.937500
v 0.500000 2.312500 0.812500
v 0.500000 2.062500 0.937500
v 0.500000 2.062500 0.812500
v 0.375000 2.312500 0.812500
v 0.375000 2.312500 0.937500
v 0.375000 2.062500 0.812500
v 0.375000 2.062500 0.937500
v 0.500000 2.312500 1.187500
v 0.500000 2.312500 1.062500
v 0.500000 2.062500 1.187500
v 0.500000 2.062500 1.062500
v 0.375000 2.312500 1.062500
v 0.375000 2.312500 1.187500
v 0.375000 2.062500 1.062500
v 0.375000 2.062500 1.187500
v 0.500000 2.937500 0.375000
v -0.562500 3.000000 0.312500
v -0.562500 3.000000 0.375000
v -0.562500 2.937500 0.312500
v -0.562500 2.937500 0.375000
v 0.562500 3.000000 1.437500
v 0.562500 3.000000 1.375000
v 0.562500 2.937500 1.437500
v -0.500000 3.000000 1.375000
v -0.500000 2.937500 1.375000
v -0.500000 3.000000 1.437500
v -0.500000 2.937500 1.437500
v -0.500000 2.937500 0.375000
v -0.562500 3.000000 1.437500
v -0.562500 2.937500 1.437500
v 0.562500 3.000000 0.312500
v 0.562500 2.937500 1.375000
v 0.562500 2.937500 0.312500
v 0.500000 3.000000 0.312500
v 0.500000 3.000000 1.375000
v 0.500000 2.937500 0.312500
v 0.500000 2.937500 1.375000
v 1.500000 1.000000 1.500000
v 1.500000 1.000000 -0.500000
v 1.500000 0.000000 1.500000
v 1.500000 -0.000000 -0.500000
v -1.500000 1.000000 -0.500000
v -1.500000 1.000000 1.500000
v -1.500000 -0.000000 -0.500000
v -1.500000 0.000000 1.500000
v -0.500000 1.000000 1.375000
v -0.500000 1.000000 0.375000
v -1.375000 1.500000 0.375000
v -1.375000 1.500000 1.375000
v -1.375000 1.000000 1.375000
v 0.500000 1.125000 0.375000
v 0.500000 1.125000 -0.500000
v 0.500000 1.000000 -0.500000
v -0.500000 1.125000 -0.500000
v -0.500000 1.125000 0.375000
v -0.500000 1.000000 -0.500000
v -0.500000 1.687500 0.375000
v 0.500000 1.750000 -0.187500
v 0.500000 1.687500 0.375000
v -0.500000 1.750000 -0.187500
v 0.500000 1.812500 0.375000
v 0.500000 1.812500 0.062500
v 0.500000 1.750000 0.375000
v 0.500000 1.750000 0.062500
v -0.500000 1.812500 0.062500
v -0.500000 1.812500 0.375000
v -0.500000 1.750000 0.062500
v -0.500000 1.750000 0.375000
v 0.562500 1.625000 0.250000
v 0.562500 1.625000 -0.187500
v 0.562500 1.187500 0.250000
v 0.562500 1.187500 -0.187500
v 0.500000 1.625000 -0.187500
v 0.500000 1.625000 0.250000
v 0.500000 1.187500 -0.187500
v 0.500000 1.187500 0.250000
v -0.500000 1.625000 0.250000
v -0.500000 1.625000 -0.187500
v -0.500000 1.187500 0.250000
v -0.500000 1.187500 -0.187500
v -0.562500 1.625000 -0.187500
v -0.562500 1.625000 0.250000
v -0.562500 1.187500 -0.187500
v -0.562500 1.187500 0.250000
v 0.250000 1.250000 -0.437500
v 0.250000 1.687500 -0.312500
v 0.062500 1.687500 0.937500
v 0.062500 1.687500 0.812500
v 0.062500 1.500000 0.937500
v 0.062500 1.500000 0.812500
v -0.062500 1.687500 0.812500
v -0.062500 1.687500 0.937500
v -0.062500 1.500000 0.812500
v -0.062500 1.500000 0.937500
v 0.062500 1.625000 0.812500
v 0.062500 1.625000 0.625000
v 0.062500 1.562500 0.625000
v -0.062500 1.625000 0.625000
v -0.062500 1.562500 0.625000
v -0.062500 1.562500 0.812500
v 0.125000 1.625000 0.625000
v 0.125000 1.625000 0.562500
v 0.125000 1.562500 0.625000
v 0.125000 1.562500 0.562500
v 0.000000 1.625000 0.562500
v 0.000000 1.625000 0.625000
v 0.000000 1.562500 0.562500
v 0.000000 1.562500 0.625000
v 0.062500 1.625000 0.937500
v 0.250000 1.625000 0.937500
v 0.062500 1.562500 0.937500
v 0.250000 1.562500 0.937500
v 0.250000 1.625000 0.812500
v 0.250000 1.562500 0.812500
v 0.062500 1.562500 0.812500
v 0.312500 1.625000 0.875000
v 0.250000 1.625000 0.875000
v 0.312500 1.562500 0.875000
v 0.250000 1.562500 0.875000
v 0.250000 1.625000 1.000000
v 0.312500 1.625000 1.000000
v 0.250000 1.562500 1.000000
v 0.312500 1.562500 1.000000
v -0.125000 1.625000 1.125000
v -0.125000 1.625000 1.187500
v -0.125000 1.562500 1.125000
v -0.125000 1.562500 1.187500
v -0.000000 1.625000 1.187500
v 0.000000 1.625000 1.125000
v -0.000000 1.562500 1.187500
v 0.000000 1.562500 1.125000
v -0.062500 1.625000 1.125000
v -0.062500 1.562500 1.125000
v 0.062500 1.625000 1.125000
v 0.062500 1.562500 1.125000
v -0.250000 1.625000 0.750000
v -0.312500 1.625000 0.750000
v -0.250000 1.562500 0.750000
v -0.312500 1.562500 0.750000
v -0.312500 1.625000 0.875000
v -0.250000 1.625000 0.875000
v -0.312500 1.562500 0.875000
v -0.250000 1.562500 0.875000
v -0.062500 1.625000 0.812500
v -0.250000 1.625000 0.812500
v -0.250000 1.562500 0.812500
v -0.250000 1.625000 0.937500
v -0.062500 1.625000 0.937500
v -0.250000 1.562500 0.937500
v -0.062500 1.562500 0.937500
v 0.437500 1.125000 1.375000
v 0.500000 1.875000 1.437500
v 0.500000 1.875000 1.375000
v 0.500000 1.125000 1.437500
v 0.500000 1.125000 1.375000
v 0.437500 1.125000 1.437500
v -0.437500 1.875000 1.437500
v -0.437500 1.125000 1.375000
v -0.500000 1.875000 1.375000
v -0.500000 1.875000 1.437500
v -0.500000 1.125000 1.375000
v -0.500000 1.125000 1.437500
v 0.437500 1.062500 1.437500
v 0.437500 1.062500 1.375000
v -0.437500 1.125000 1.437500
v -0.437500 1.062500 1.375000
v -0.437500 1.062500 1.437500
v 0.437500 1.937500 1.437500
v 0.437500 1.937500 1.375000
v 0.437500 1.875000 1.437500
v 0.437500 1.875000 1.375000
v -0.437500 1.937500 1.375000
v -0.437500 1.937500 1.437500
v -0.437500 1.875000 1.375000
v 1.062500 1.562500 1.000000
v 1.062500 1.562500 0.750000
v 1.062500 1.500000 1.000000
v 1.062500 1.500000 0.750000
v 0.812500 1.562500 0.750000
v 0.812500 1.562500 1.000000
v 0.812500 1.500000 0.750000
v 0.812500 1.500000 1.000000
v -0.812500 1.562500 1.000000
v -0.812500 1.562500 0.750000
v -0.812500 1.500000 1.000000
v -0.812500 1.500000 0.750000
v -1.062500 1.562500 0.750000
v -1.062500 1.562500 1.000000
v -1.062500 1.500000 0.750000
v -1.062500 1.500000 1.000000
v 1.062500 1.750000 1.000000
v 1.062500 1.750000 0.750000
v 1.062500 1.687500 1.000000
v 1.062500 1.687500 0.750000
v 0.812500 1.750000 0.750000
v 0.812500 1.750000 1.000000
v 0.812500 1.687500 0.750000
v 0.812500 1.687500 1.000000
v -0.812500 1.750000 1.000000
v -0.812500 1.750000 0.750000
v -0.812500 1.687500 1.000000
v -0.812500 1.687500 0.750000
v -1.062500 1.750000 0.750000
v -1.062500 1.750000 1.000000
v -1.062500 1.687500 0.750000
v -1.062500 1.687500 1.000000
v 1.062500 1.937500 1.000000
v 1.062500 1.937500 0.750000
v 1.062500 1.875000 1.000000
v 1.062500 1.875000 0.750000
v 0.812500 1.937500 0.750000
v 0.812500 1.937500 1.000000
v 0.812500 1.875000 0.750000
v 0.812500 1.875000 1.000000
v -0.812500 1.937500 1.000000
v -0.812500 1.937500 0.750000
v -0.812500 1.875000 1.000000
v -0.812500 1.875000 0.750000
v -1.062500 1.937500 0.750000
v -1.062500 1.937500 1.000000
v -1.062500 1.875000 0.750000
v -1.062500 1.875000 1.000000
v 1.125000 1.687500 1.062500
v 1.125000 1.687500 0.687500
v 1.125000 1.562500 1.062500
v 1.125000 1.562500 0.687500
v 0.750000 1.687500 0.687500
v 0.750000 1.687500 1.062500
v 0.750000 1.562500 0.687500
v 0.750000 1.562500 1.062500
v 1.125000 1.875000 1.062500
v 1.125000 1.875000 0.687500
v 1.125000 1.750000 1.062500
v 1.125000 1.750000 0.687500
v 0.750000 1.875000 0.687500
v 0.750000 1.875000 1.062500
v 0.750000 1.750000 0.687500
v 0.750000 1.750000 1.062500
v -0.750000 1.687500 1.062500
v -0.750000 1.687500 0.687500
v -0.750000 1.562500 1.062500
v -0.750000 1.562500 0.687500
v -1.125000 1.687500 0.687500
v -1.125000 1.687500 1.062500
v -1.125000 1.562500 0.687500
v -1.125000 1.562500 1.062500
v 0.500000 1.593750 -0.265625
v 0.500000 1.437500 -0.343750
v 0.500000 1.281250 -0.421875
v -0.500000 1.281250 -0.421875
v -0.500000 1.437500 -0.343750
v -0.500000 1.593750 -0.265625
v 0.250000 1.000000 -0.500000
v 0.000000 1.000000 -0.500000
v -0.250000 1.000000 -0.500000
v 0.250000 1.125000 -0.500000
v 0.000000 1.125000 -0.500000
v -0.250000 1.125000 -0.500000
v -0.250000 1.750000 -0.187500
v 0.250000 1.812500 0.062500
v 0.000000 1.812500 0.062500
v 0.250000 1.750000 0.375000
v 0.000000 1.750000 0.375000
v -0.250000 1.750000 0.375000
v 0.250000 1.812500 0.375000
v 0.000000 1.812500 0.375000
v -0.250000 1.812500 0.375000
v 0.250000 1.687500 0.375000
v 0.000000 1.687500 0.375000
v -0.250000 1.687500 0.375000
v 0.250000 1.593750 -0.265625
v -0.250000 1.593750 -0.265625
v 0.000000 1.281250 -0.421875
v 0.250000 1.750000 -0.187500
v -0.250000 1.812500 0.062500
v 0.250000 1.437500 -0.343750
v -0.250000 1.437500 -0.343750
v 0.250000 1.281250 -0.421875
v -0.250000 1.281250 -0.421875
v 0.250000 1.811729 -0.265625
v -0.000000 1.811729 -0.265625
v -0.250000 1.811729 -0.265625
v 0.250000 1.874229 -0.015625
v -0.000000 1.874229 -0.015625
v -0.250000 1.874229 -0.015625
v 0.250000 1.655479 -0.343750
v -0.000000 1.655479 -0.343750
v -0.250000 1.655479 -0.343750
v 0.250000 1.499229 -0.421875
v -0.000000 1.499229 -0.421875
v -0.250000 1.499229 -0.421875
v 0.250000 1.342979 -0.500000
v -0.000000 1.342979 -0.500000
v -0.250000 1.342979 -0.500000
vn -0.0000 -1.0000 -0.0000
vn -0.0000 -0.0000 1.0000
vn -1.0000 -0.0000 -0.0000
vn 1.0000 -0.0000 -0.0000
vn -0.0000 1.0000 -0.0000
vn -0.0000 -0.0000 -1.0000
vn -0.0000 0.9701 -0.2425
vn -0.0000 0.4472 -0.8944
vn -0.0000 -0.7846 -0.6200
vn -0.0000 0.7846 0.6200
vt 0.093750 0.890625
vt 0.125000 1.000000
vt 0.062500 0.890625
vt 0.125000 0.976562
vt 0.093750 1.000000
vt 0.062500 1.000000
vt 0.865234 0.769531
vt 0.765625 0.750000
vt 0.855469 0.789062
vt 0.000000 0.000000
vt 0.031250 0.843750
vt 0.031250 0.828125
vt 0.078125 0.828125
vt 0.078125 0.843750
vt 0.031250 0.835938
vt 0.031250 0.789062
vt 0.078125 0.789062
vt 0.078125 0.835938
vt 0.062500 0.851562
vt 0.070312 0.851562
vt 0.070312 0.875000
vt 0.062500 0.875000
vt 0.031250 0.875000
vt 0.031250 0.851562
vt 0.054688 0.851562
vt 0.054688 0.875000
vt 0.000000 1.000000
vt 0.000000 0.976562
vt 0.023438 0.976562
vt 0.023438 1.000000
vt 0.640625 0.617188
vt 0.640625 0.609375
vt 0.750000 0.609375
vt 0.750000 0.617188
vt 0.000000 0.992188
vt 0.093750 0.992188
vt 0.109375 0.992188
vt 0.109375 1.000000
vt 0.742188 0.609375
vt 0.750000 0.703125
vt 0.742188 0.703125
vt 0.640625 0.703125
vt 0.000000 0.906250
vt 0.109375 0.906250
vt 0.648438 0.609375
vt 0.648438 0.703125
vt 0.000000 0.937500
vt 0.343750 0.937500
vt 0.343750 1.000000
vt 0.125000 0.937500
vt 0.507812 0.851562
vt 0.507812 0.789062
vt 0.632812 0.789062
vt 0.632812 0.851562
vt 0.507812 0.992188
vt 0.507812 0.867188
vt 0.632812 0.867188
vt 0.632812 0.992188
vt 0.000000 0.875000
vt 0.343750 0.875000
vt 0.617188 0.789062
vt 0.617188 0.851562
vt 0.523438 0.851562
vt 0.523438 0.789062
vt 0.765625 0.703125
vt 0.765625 0.812500
vt 0.640625 0.812500
vt 0.398438 0.867188
vt 0.398438 0.812500
vt 0.476562 0.812500
vt 0.476562 0.867188
vt 0.000000 0.945312
vt 0.015625 0.945312
vt 0.015625 1.000000
vt 0.664062 0.867188
vt 0.664062 0.812500
vt 0.742188 0.812500
vt 0.742188 0.867188
vt 0.765625 1.000000
vt 0.765625 0.984375
vt 0.843750 0.984375
vt 0.843750 1.000000
vt 0.000000 0.984375
vt 0.125000 0.984375
vt 0.078125 0.984375
vt 0.078125 1.000000
vt 0.000000 0.921875
vt 0.015625 0.921875
vt 0.484375 1.000000
vt 0.484375 0.812500
vt 0.500000 0.812500
vt 0.500000 1.000000
vt 0.000000 0.867188
vt 0.015625 0.867188
vt 0.375000 1.000000
vt 0.375000 0.812500
vt 0.390625 0.812500
vt 0.390625 1.000000
vt 0.632812 0.882812
vt 0.617188 0.882812
vt 0.617188 0.867188
vt 0.015625 0.984375
vt 0.523438 0.867188
vt 0.523438 0.882812
vt 0.507812 0.882812
vt 0.000000 0.812500
vt 0.015625 0.812500
vt 0.523438 0.976562
vt 0.523438 0.992188
vt 0.507812 0.976562
vt 0.632812 0.976562
vt 0.617188 0.992188
vt 0.617188 0.976562
vt 0.710938 0.976562
vt 0.710938 0.867188
vt 0.726562 0.867188
vt 0.726562 0.976562
vt 0.781250 0.984375
vt 0.781250 0.875000
vt 0.765625 0.875000
vt 0.414062 0.976562
vt 0.414062 0.867188
vt 0.429688 0.867188
vt 0.429688 0.976562
vt 0.679688 0.976562
vt 0.679688 0.867188
vt 0.695312 0.867188
vt 0.695312 0.976562
vt 0.445312 0.976562
vt 0.445312 0.867188
vt 0.460938 0.867188
vt 0.460938 0.976562
vt 0.390625 0.976562
vt 0.398438 0.976562
vt 0.000000 0.890625
vt 0.015625 0.890625
vt 0.742188 0.976562
vt 0.750000 0.812500
vt 0.750000 0.976562
vt 0.781250 0.820312
vt 0.765625 0.820312
vt 0.007812 0.984375
vt 0.007812 1.000000
vt 0.476562 0.976562
vt 0.484375 0.976562
vt 0.656250 0.976562
vt 0.656250 0.859375
vt 0.664062 0.859375
vt 0.664062 0.976562
vt 0.000000 0.882812
vt 0.015625 0.882812
vt 0.656250 0.812500
vt 0.000000 0.835938
vt 0.015625 0.835938
vt 0.015625 0.992188
vt 0.656250 1.000000
vt 0.750000 1.000000
vt 0.015625 0.976562
vt 0.757812 1.000000
vt 0.757812 0.984375
vt 0.851562 0.984375
vt 0.851562 1.000000
vt 0.429688 0.914062
vt 0.429688 0.882812
vt 0.445312 0.882812
vt 0.445312 0.914062
vt 0.000000 0.968750
vt 0.015625 0.968750
vt 0.695312 0.914062
vt 0.695312 0.882812
vt 0.710938 0.882812
vt 0.710938 0.914062
vt 0.796875 1.000000
vt 0.796875 0.984375
vt 0.812500 0.984375
vt 0.812500 1.000000
vt 0.429688 0.960938
vt 0.429688 0.929688
vt 0.445312 0.929688
vt 0.445312 0.960938
vt 0.695312 0.960938
vt 0.695312 0.929688
vt 0.710938 0.929688
vt 0.710938 0.960938
vt 0.398438 0.914062
vt 0.398438 0.882812
vt 0.414062 0.882812
vt 0.414062 0.914062
vt 0.726562 0.914062
vt 0.726562 0.882812
vt 0.742188 0.882812
vt 0.742188 0.914062
vt 0.781250 1.000000
vt 0.460938 0.914062
vt 0.460938 0.882812
vt 0.476562 0.882812
vt 0.476562 0.914062
vt 0.664062 0.914062
vt 0.664062 0.882812
vt 0.679688 0.882812
vt 0.679688 0.914062
vt 0.828125 1.000000
vt 0.828125 0.984375
vt 0.398438 0.960938
vt 0.398438 0.929688
vt 0.414062 0.929688
vt 0.414062 0.960938
vt 0.726562 0.960938
vt 0.726562 0.929688
vt 0.742188 0.929688
vt 0.742188 0.960938
vt 0.460938 0.960938
vt 0.460938 0.929688
vt 0.476562 0.929688
vt 0.476562 0.960938
vt 0.664062 0.960938
vt 0.664062 0.929688
vt 0.679688 0.929688
vt 0.679688 0.960938
vt 0.031250 0.992188
vt 0.031250 1.000000
vt 0.968750 0.937500
vt 0.968750 0.960938
vt 0.937500 0.960937
vt 0.937500 0.937500
vt 0.507812 0.859375
vt 0.640625 0.859375
vt 0.640625 0.867188
vt 0.007812 0.992188
vt 0.132812 0.992188
vt 0.132812 1.000000
vt 0.632812 0.859375
vt 0.500000 0.992188
vt 0.507812 1.000000
vt 0.632812 1.000000
vt 0.640625 0.992188
vt 0.640625 1.000000
vt 0.500000 0.867188
vt 0.500000 0.859375
vt 0.375000 0.875000
vt 0.000000 0.773438
vt 0.000000 0.648438
vt 0.250000 0.648438
vt 0.250000 0.773438
vt 0.625000 0.523438
vt 0.625000 0.773438
vt 0.250000 0.523438
vt 0.968750 0.851562
vt 0.968750 0.835938
vt 1.000000 0.835938
vt 1.000000 0.851562
vt 0.765625 0.734375
vt 0.875000 0.734375
vt 0.875000 0.750000
vt 0.906250 0.960938
vt 0.937500 1.000000
vt 0.906250 1.000000
vt 0.835938 0.828125
vt 0.845703 0.808594
vt 0.765625 0.828125
vt 0.855469 0.789062
vt 0.031250 0.890625
vt 0.125000 0.890625
vt 1.000000 0.937500
vt 1.000000 0.960938
vt 0.125000 0.992188
vt 0.804688 0.835938
vt 0.804688 0.828125
vt 0.765625 0.835938
vt 0.367188 0.875000
vt 0.367188 0.820312
vt 0.375000 0.820312
vt 0.320312 0.875000
vt 0.320312 0.820312
vt 0.328125 0.820312
vt 0.328125 0.875000
vt 0.054688 0.945312
vt 0.054688 1.000000
vt 0.375000 0.867188
vt 0.320312 0.867188
vt 0.320312 0.828125
vt 0.375000 0.828125
vt 0.796875 0.976562
vt 0.796875 0.953125
vt 0.812500 0.953125
vt 0.812500 0.976562
vt 0.812500 0.968750
vt 0.828125 0.968750
vt 0.796875 0.968750
vt 0.781250 0.968750
vt 0.781250 0.976562
vt 0.789062 0.953125
vt 0.789062 0.976562
vt 0.781250 0.953125
vt 0.804688 0.984375
vt 0.804688 0.976562
vt 0.789062 0.984375
vt 0.007812 0.906250
vt 0.062500 0.640625
vt 0.062500 0.546875
vt 0.171875 0.546875
vt 0.171875 0.640625
vt 0.179688 0.546875
vt 0.179688 0.640625
vt 0.171875 0.632812
vt 0.179688 0.632812
vt 0.171875 0.554688
vt 0.179688 0.554688
vt 0.054688 0.640625
vt 0.054688 0.546875
vt 0.054688 0.632812
vt 0.062500 0.632812
vt 0.054688 0.554688
vt 0.062500 0.554688
vt 0.164062 0.546875
vt 0.164062 0.539062
vt 0.171875 0.539062
vt 0.062500 0.539062
vt 0.070312 0.539062
vt 0.070312 0.546875
vt 0.164062 0.648438
vt 0.164062 0.640625
vt 0.171875 0.648438
vt 0.062500 0.648438
vt 0.070312 0.640625
vt 0.070312 0.648438
vt 0.000000 0.828125
vt 0.000000 0.820312
vt 0.031250 0.820312
vt 0.031250 0.968750
vt 0.031250 1.000000
vt 0.000000 0.843750
vt 0.000000 0.804688
vt 0.031250 0.773438
vt 0.031250 0.804688
vt 0.031250 0.796875
vt 0.031250 0.781250
vt 0.078125 0.781250
vt 0.078125 0.796875
vt 0.906250 0.937500
vt 1.000000 0.873047
vt 0.968750 0.873047
vt 0.875000 0.894531
vt 0.906250 0.894531
vt 0.906250 0.916016
vt 0.875000 0.916016
vt 0.937500 0.851562
vt 0.937500 0.873047
vt 0.968750 1.000000
vt 0.875000 0.937500
vt 0.875000 0.960938
vt 0.875000 0.873047
vt 0.906250 0.873047
vt 0.906250 0.851562
vt 0.875000 0.851562
vt 0.875000 1.000000
vt 1.000000 1.000000
vt 1.000000 0.894531
vt 0.968750 0.894531
vt 0.062500 0.992188
vt 1.000000 0.916016
vt 0.968750 0.916016
vt 0.875000 0.835938
vt 0.906250 0.835938
vt 0.937500 0.835938
vt 0.937500 0.894531
vt 0.937500 0.916016
s 0
usemtl m_0b2e108c-0c44-a081-5bc3-d47dcbc0cc1e
f 624/7/3 429/8/3 625/9/3
f 438/10/4 432/10/4 436/10/4
f 441/10/3 439/10/3 434/10/3
f 1/11/4 3/12/4 4/13/4 2/14/4
f 6/11/2 8/12/2 3/13/2 1/14/2
f 5/11/3 7/12/3 8/13/3 6/14/3
f 5/15/5 6/16/5 1/17/5 2/18/5
f 8/15/1 7/16/1 4/17/1 3/18/1
f 10/19/6 12/20/6 15/21/6 13/22/6
f 9/19/4 11/20/4 12/21/4 10/22/4
f 14/19/2 16/20/2 11/21/2 9/22/2
f 13/19/3 15/20/3 16/21/3 14/22/3
f 13/23/5 14/24/5 9/25/5 10/26/5
f 18/19/6 20/20/6 23/21/6 21/22/6
f 17/19/4 19/20/4 20/21/4 18/22/4
f 22/19/2 24/20/2 19/21/2 17/22/2
f 21/19/3 23/20/3 24/21/3 22/22/3
f 21/23/5 22/24/5 17/25/5 18/26/5
f 26/31/6 27/32/6 30/33/6 28/34/6
f 28/39/3 30/33/3 31/40/3 29/41/3
f 28/32/5 29/42/5 25/40/5 26/33/5
f 33/31/6 35/32/6 38/33/6 36/34/6
f 32/32/4 34/45/4 35/46/4 33/42/4
f 36/32/5 37/42/5 32/40/5 33/33/5
f 77/51/2 420/52/2 39/53/2 74/54/2
f 69/55/5 77/56/5 74/57/5 72/58/5
f 42/51/6 34/52/6 40/61/6 72/62/6
f 41/51/4 43/52/4 34/53/4 42/54/4
f 74/63/2 39/64/2 43/53/2 41/54/2
f 72/42/5 74/65/5 41/66/5 42/67/5
f 45/68/6 47/69/6 50/70/6 48/71/6
f 49/75/2 149/76/2 46/77/2 44/78/2
f 48/79/5 49/80/5 44/81/5 45/82/5
f 52/75/6 158/76/6 162/77/6 54/78/6
f 55/68/2 161/69/2 53/70/2 51/71/2
f 54/80/5 55/79/5 51/82/5 52/81/5
f 56/75/4 58/76/4 178/77/4 57/78/4
f 59/68/3 182/69/3 175/70/3 60/71/3
f 59/79/5 60/82/5 56/81/5 57/80/5
f 61/68/4 63/69/4 166/70/4 62/71/4
f 64/75/3 168/76/3 66/77/3 65/78/3
f 64/80/5 65/81/5 61/82/5 62/79/5
f 189/89/6 152/90/6 69/91/6 68/92/6
f 68/95/3 69/96/3 181/97/3 194/98/3
f 68/57/5 194/99/5 67/100/5 189/101/5
f 70/95/6 72/96/6 144/97/6 187/98/6
f 190/89/4 71/90/4 72/91/4 70/92/4
f 187/103/5 186/104/5 190/105/5 70/56/5
f 409/95/4 74/96/4 170/97/4 73/98/4
f 75/89/2 154/90/2 74/91/2 409/92/2
f 183/108/5 75/109/5 409/55/5 73/110/5
f 398/95/2 77/96/2 164/97/2 184/98/2
f 195/89/3 176/90/3 77/91/3 398/92/3
f 195/111/5 398/58/5 184/112/5 76/113/5
f 79/114/6 81/115/6 84/116/6 82/117/6
f 78/118/4 80/119/4 81/120/4 79/80/4
f 83/121/2 85/122/2 80/123/2 78/124/2
f 82/80/3 84/120/3 85/119/3 83/118/3
f 87/125/6 89/126/6 92/127/6 90/128/6
f 86/118/4 88/119/4 89/120/4 87/80/4
f 91/129/2 93/130/2 88/131/2 86/132/2
f 90/80/3 92/120/3 93/119/3 91/118/3
f 95/118/6 97/119/6 100/120/6 98/80/6
f 94/121/4 96/122/4 97/123/4 95/124/4
f 99/80/2 101/120/2 96/119/2 94/118/2
f 98/114/3 100/115/3 101/116/3 99/117/3
f 103/118/6 105/119/6 108/120/6 106/80/6
f 102/129/4 104/130/4 105/131/4 103/132/4
f 107/80/2 109/120/2 104/119/2 102/118/2
f 106/125/3 108/126/3 109/127/3 107/128/3
f 111/80/6 113/120/6 116/119/6 114/118/6
f 110/114/4 112/115/4 113/116/4 111/117/4
f 115/118/2 117/119/2 112/120/2 110/80/2
f 114/121/3 116/122/3 117/123/3 115/124/3
f 119/80/6 121/120/6 124/119/6 122/118/6
f 118/125/4 120/126/4 121/127/4 119/128/4
f 123/118/2 125/119/2 120/120/2 118/80/2
f 122/129/3 124/130/3 125/131/3 123/132/3
f 127/129/6 129/130/6 132/131/6 130/132/6
f 126/80/4 128/120/4 129/119/4 127/118/4
f 131/125/2 133/126/2 128/127/2 126/128/2
f 130/118/3 132/119/3 133/120/3 131/80/3
f 135/121/6 137/122/6 140/123/6 138/124/6
f 134/80/4 136/120/4 137/119/4 135/118/4
f 139/114/2 141/115/2 136/116/2 134/117/2
f 138/118/3 140/119/3 141/120/3 139/80/3
f 188/133/6 144/97/6 47/69/6 145/134/6
f 146/137/2 46/77/2 143/138/2 142/139/2
f 145/118/3 47/140/3 46/141/3 146/80/3
f 148/144/6 50/70/6 152/90/6 150/145/6
f 147/80/4 149/141/4 50/140/4 148/118/4
f 151/146/2 179/147/2 149/148/2 147/149/2
f 172/146/6 155/152/6 158/76/6 156/149/6
f 157/144/2 53/70/2 154/90/2 153/145/2
f 156/80/3 158/141/3 53/140/3 157/118/3
f 160/137/6 162/77/6 163/138/6 193/139/6
f 159/118/4 161/140/4 162/141/4 160/80/4
f 185/133/2 164/97/2 161/69/2 159/134/2
f 165/144/4 166/70/4 71/90/4 192/145/4
f 167/80/2 168/141/2 166/140/2 165/118/2
f 142/146/3 143/152/3 168/76/3 167/149/3
f 169/118/6 63/140/6 66/141/6 171/80/6
f 191/133/4 170/97/4 63/69/4 169/134/4
f 171/137/3 66/77/3 155/138/3 172/139/3
f 173/80/6 58/141/6 175/140/6 174/118/6
f 193/146/4 163/152/4 58/76/4 173/149/4
f 174/144/3 175/70/3 176/90/3 197/145/3
f 177/137/4 178/77/4 179/138/4 151/139/4
f 180/118/2 182/140/2 178/141/2 177/80/2
f 196/133/3 181/97/3 182/69/3 180/134/3
f 183/156/6 172/146/6 193/139/6 76/157/6
f 184/98/2 185/133/2 153/145/2 75/89/2
f 76/113/5 184/112/5 75/109/5 183/108/5
f 185/159/1 193/160/1 172/161/1 153/162/1
f 187/98/6 188/133/6 150/145/6 189/89/6
f 67/156/2 151/146/2 142/139/2 186/157/2
f 189/101/5 67/100/5 186/104/5 187/103/5
f 151/160/1 150/159/1 188/162/1 142/161/1
f 73/98/4 191/133/4 192/145/4 190/89/4
f 186/156/3 142/146/3 172/139/3 183/157/3
f 186/104/5 183/108/5 73/110/5 190/105/5
f 172/160/1 142/161/1 192/162/1 191/159/1
f 76/156/4 193/146/4 151/139/4 67/157/4
f 194/98/3 196/133/3 197/145/3 195/89/3
f 194/99/5 195/111/5 76/113/5 67/100/5
f 197/159/1 196/162/1 151/161/1 193/160/1
f 199/163/6 201/164/6 204/165/6 202/166/6
f 203/169/2 205/170/2 200/171/2 198/172/2
f 202/173/5 203/174/5 198/175/5 199/176/5
f 205/174/1 204/173/1 201/176/1 200/175/1
f 207/177/6 209/178/6 212/179/6 210/180/6
f 211/181/2 213/182/2 208/183/2 206/184/2
f 210/173/5 211/174/5 206/175/5 207/176/5
f 213/174/1 212/173/1 209/176/1 208/175/1
f 215/185/6 217/186/6 220/187/6 218/188/6
f 219/189/2 221/190/2 216/191/2 214/192/2
f 218/79/5 219/80/5 214/118/5 215/193/5
f 221/80/1 220/79/1 217/193/1 216/118/1
f 223/194/6 225/195/6 228/196/6 226/197/6
f 227/198/2 229/199/2 224/200/2 222/201/2
f 226/202/5 227/203/5 222/81/5 223/82/5
f 229/203/1 228/202/1 225/82/1 224/81/1
f 231/204/6 233/205/6 236/206/6 234/207/6
f 235/208/2 237/209/2 232/210/2 230/211/2
f 234/79/5 235/80/5 230/118/5 231/193/5
f 237/80/1 236/79/1 233/193/1 232/118/1
f 239/212/6 241/213/6 244/214/6 242/215/6
f 243/216/2 245/217/2 240/218/2 238/219/2
f 242/202/5 243/203/5 238/81/5 239/82/5
f 245/203/1 244/202/1 241/82/1 240/81/1
f 247/208/6 249/209/6 252/210/6 250/211/6
f 251/204/2 253/205/2 248/206/2 246/207/2
f 250/80/5 251/79/5 246/193/5 247/118/5
f 253/79/1 252/80/1 249/118/1 248/193/1
f 255/181/6 257/182/6 260/183/6 258/184/6
f 259/177/2 261/178/2 256/179/2 254/180/2
f 258/174/5 259/173/5 254/176/5 255/175/5
f 261/173/1 260/174/1 257/175/1 256/176/1
f 263/216/6 265/217/6 268/218/6 266/219/6
f 267/212/2 269/213/2 264/214/2 262/215/2
f 266/203/5 267/202/5 262/82/5 263/81/5
f 269/202/1 268/203/1 265/81/1 264/82/1
f 271/198/6 273/199/6 276/200/6 274/201/6
f 275/194/2 277/195/2 272/196/2 270/197/2
f 274/203/5 275/202/5 270/82/5 271/81/5
f 277/202/1 276/203/1 273/81/1 272/82/1
f 279/169/6 281/170/6 284/171/6 282/172/6
f 283/163/2 285/164/2 280/165/2 278/166/2
f 282/174/5 283/173/5 278/176/5 279/175/5
f 285/173/1 284/174/1 281/175/1 280/176/1
f 287/189/6 289/190/6 292/191/6 290/192/6
f 291/185/2 293/186/2 288/187/2 286/188/2
f 290/80/5 291/79/5 286/193/5 287/118/5
f 293/79/1 292/80/1 289/118/1 288/193/1
f 294/198/4 296/199/4 297/200/4 295/201/4
f 298/194/3 300/195/3 301/196/3 299/197/3
f 298/202/5 299/82/5 294/81/5 295/203/5
f 301/202/1 300/82/1 297/81/1 296/203/1
f 302/169/4 304/170/4 305/171/4 303/172/4
f 656/222/7 659/223/7 658/224/7 655/225/7
f 309/173/1 308/176/1 305/175/1 304/174/1
f 310/189/4 312/190/4 313/191/4 311/192/4
f 314/185/3 316/186/3 317/187/3 315/188/3
f 314/79/5 315/193/5 310/118/5 311/80/5
f 317/79/1 316/193/1 313/118/1 312/80/1
f 318/208/4 320/209/4 321/210/4 319/211/4
f 322/204/3 324/205/3 325/206/3 323/207/3
f 322/79/5 323/193/5 318/118/5 319/80/5
f 325/79/1 324/193/1 321/118/1 320/80/1
f 326/181/4 328/182/4 329/183/4 327/184/4
f 330/177/3 332/178/3 333/179/3 331/180/3
f 330/173/5 331/176/5 326/175/5 327/174/5
f 333/173/1 332/176/1 329/175/1 328/174/1
f 334/216/4 336/217/4 337/218/4 335/219/4
f 338/212/3 340/213/3 341/214/3 339/215/3
f 338/202/5 339/82/5 334/81/5 335/203/5
f 341/202/1 340/82/1 337/81/1 336/203/1
f 342/204/4 344/205/4 345/206/4 343/207/4
f 346/208/3 348/209/3 349/210/3 347/211/3
f 346/80/5 347/118/5 342/193/5 343/79/5
f 349/80/1 348/118/1 345/193/1 344/79/1
f 350/177/4 352/178/4 353/179/4 351/180/4
f 354/181/3 356/182/3 357/183/3 355/184/3
f 354/174/5 355/175/5 350/176/5 351/173/5
f 357/174/1 356/175/1 353/176/1 352/173/1
f 358/212/4 360/213/4 361/214/4 359/215/4
f 362/216/3 364/217/3 365/218/3 363/219/3
f 362/203/5 363/81/5 358/82/5 359/202/5
f 365/203/1 364/81/1 361/82/1 360/202/1
f 366/194/4 368/195/4 369/196/4 367/197/4
f 370/198/3 372/199/3 373/200/3 371/201/3
f 370/203/5 371/81/5 366/82/5 367/202/5
f 373/203/1 372/81/1 369/82/1 368/202/1
f 374/163/4 376/164/4 377/165/4 375/166/4
f 378/169/3 380/170/3 381/171/3 379/172/3
f 378/174/5 379/175/5 374/176/5 375/173/5
f 381/174/1 380/175/1 377/176/1 376/173/1
f 382/185/4 384/186/4 385/187/4 383/188/4
f 386/189/3 388/190/3 389/191/3 387/192/3
f 386/80/5 387/118/5 382/193/5 383/79/5
f 389/80/1 388/118/1 385/193/1 384/79/1
f 408/56/6 410/226/6 393/227/6 391/228/6
f 391/57/3 393/232/3 394/227/3 392/228/3
f 391/228/5 392/227/5 70/226/5 408/56/5
f 394/228/1 393/227/1 410/226/1 390/56/1
f 395/92/4 397/233/4 406/55/4 396/234/4
f 400/235/2 401/58/2 397/233/2 395/92/2
f 398/235/5 400/58/5 395/233/5 396/92/5
f 401/235/1 399/58/1 406/233/1 397/92/1
f 403/235/2 404/58/2 401/236/2 400/237/2
f 392/57/3 394/228/3 404/237/3 403/235/3
f 392/57/5 403/235/5 400/237/5 68/228/5
f 404/235/1 394/57/1 402/228/1 401/237/1
f 405/238/6 407/239/6 410/226/6 408/56/6
f 396/233/4 406/55/4 407/226/4 405/239/4
f 408/239/5 409/233/5 396/55/5 405/226/5
f 411/233/1 410/239/1 407/226/1 406/55/1
f 413/27/6 415/59/6 418/240/6 416/95/6
f 412/241/4 414/242/4 415/243/4 413/244/4
f 417/27/2 419/59/2 414/240/2 412/95/2
f 416/241/3 418/242/3 419/243/3 417/244/3
f 416/245/5 417/246/5 412/244/5 413/247/5
f 419/246/1 418/245/1 415/247/1 414/244/1
f 69/63/6 421/64/6 31/53/6 422/54/6
f 423/51/2 424/52/2 420/61/2 77/62/2
f 422/51/3 31/52/3 424/53/3 423/54/3
f 422/67/5 423/66/5 77/65/5 69/42/5
f 632/248/6 629/249/6 430/250/6 428/251/6
f 425/8/4 40/252/4 427/253/4 426/254/4
f 428/254/3 430/253/3 421/252/3 429/8/3
f 634/255/5 635/224/5 640/256/5 639/257/5
f 434/258/3 626/259/3 431/141/3 442/260/3
f 425/8/4 426/254/4 623/7/4
f 622/261/4 425/8/4 623/7/4
f 659/223/3 656/222/3 633/222/3 649/223/3
f 432/258/4 437/260/4 433/141/4 621/259/4
f 622/261/4 621/259/4 433/141/4 425/8/4
f 428/254/3 429/8/3 624/7/3
f 612/15/1 611/16/1 608/17/1 607/18/1
f 434/264/7 439/265/7 649/223/7 633/222/7
f 439/267/3 441/268/3 442/260/3 440/269/3
f 444/270/6 446/271/6 449/272/6 447/240/6
f 443/273/4 445/274/4 446/272/4 444/240/4
f 448/273/2 450/274/2 445/275/2 443/276/2
f 447/279/5 448/280/5 443/273/5 444/240/5
f 450/272/1 449/274/1 446/281/1 445/282/1
f 452/273/6 454/274/6 457/275/6 455/276/6
f 451/273/4 453/274/4 454/272/4 452/240/4
f 456/270/2 458/271/2 453/272/2 451/240/2
f 455/273/3 457/274/3 458/272/3 456/240/3
f 455/280/5 456/279/5 451/240/5 452/273/5
f 458/274/1 457/272/1 454/282/1 453/281/1
f 462/283/6 464/284/6 467/285/6 465/286/6
f 461/283/4 463/284/4 464/285/4 462/286/4
f 466/283/2 468/284/2 463/285/2 461/286/2
f 465/283/3 467/284/3 468/285/3 466/286/3
f 465/175/5 466/287/5 461/288/5 462/203/5
f 468/175/1 467/287/1 464/288/1 463/203/1
f 470/283/6 471/289/6 473/290/6 472/291/6
f 469/292/4 489/284/4 471/283/4 470/293/4
f 472/291/3 473/293/3 474/292/3 518/294/3
f 472/291/5 518/294/5 469/284/5 470/283/5
f 474/294/1 473/291/1 471/283/1 489/284/1
f 476/295/6 478/296/6 481/293/6 479/297/6
f 475/174/4 477/283/4 478/296/4 476/295/4
f 480/297/2 482/293/2 477/296/2 475/295/2
f 479/297/3 481/293/3 482/283/3 480/174/3
f 479/297/5 480/293/5 475/296/5 476/295/5
f 482/297/1 481/293/1 478/296/1 477/295/1
f 484/283/4 486/289/4 488/290/4 487/291/4
f 483/292/2 485/284/2 486/283/2 484/293/2
f 487/291/6 488/293/6 489/292/6 469/294/6
f 487/291/5 469/294/5 483/284/5 484/283/5
f 489/294/1 488/291/1 486/283/1 485/284/1
f 491/295/3 493/296/3 496/293/3 494/297/3
f 490/174/6 492/283/6 493/296/6 491/295/6
f 495/297/4 497/293/4 492/296/4 490/295/4
f 494/297/2 496/293/2 497/283/2 495/174/2
f 494/297/5 495/293/5 490/296/5 491/295/5
f 497/297/1 496/293/1 493/296/1 492/295/1
f 499/295/2 501/296/2 504/293/2 502/297/2
f 498/174/3 500/283/3 501/296/3 499/295/3
f 503/297/6 505/293/6 500/296/6 498/295/6
f 502/297/4 504/293/4 505/283/4 503/174/4
f 502/297/5 503/293/5 498/296/5 499/295/5
f 505/297/1 504/293/1 501/296/1 500/295/1
f 506/283/2 507/289/2 509/290/2 508/291/2
f 522/292/3 524/284/3 507/283/3 506/293/3
f 508/291/4 509/293/4 485/292/4 483/294/4
f 508/291/5 483/294/5 522/284/5 506/283/5
f 485/294/1 509/291/1 507/283/1 524/284/1
f 511/295/3 513/296/3 516/293/3 514/297/3
f 510/174/6 512/283/6 513/296/6 511/295/6
f 515/297/4 517/293/4 512/296/4 510/295/4
f 514/297/2 516/293/2 517/283/2 515/174/2
f 514/297/5 515/293/5 510/296/5 511/295/5
f 517/297/1 516/293/1 513/296/1 512/295/1
f 519/283/3 520/289/3 523/290/3 521/291/3
f 518/292/6 474/284/6 520/283/6 519/293/6
f 521/291/2 523/293/2 524/292/2 522/294/2
f 521/291/5 522/294/5 518/284/5 519/283/5
f 524/294/1 523/291/1 520/283/1 474/284/1
f 531/299/2 539/300/2 530/301/2 544/302/2
f 526/302/4 528/301/4 529/303/4 527/304/4
f 544/302/2 530/301/2 528/303/2 526/304/2
f 545/302/5 544/305/5 526/306/5 527/304/5
f 530/307/1 525/301/1 529/303/1 528/308/1
f 534/309/2 536/310/2 539/300/2 531/299/2
f 533/309/3 535/310/3 536/300/3 534/299/3
f 533/309/5 534/311/5 531/312/5 548/299/5
f 536/313/1 535/310/1 532/300/1 539/314/1
f 530/315/4 537/316/4 538/317/4 525/301/4
f 539/300/2 541/318/2 537/317/2 530/301/2
f 532/300/3 540/318/3 541/319/3 539/320/3
f 541/300/1 540/318/1 538/317/1 537/301/1
f 542/321/4 544/322/4 545/302/4 543/323/4
f 547/324/2 531/299/2 544/302/2 542/323/2
f 546/324/3 548/299/3 531/325/3 547/326/3
f 546/324/5 547/299/5 542/302/5 543/323/5
f 550/327/6 552/328/6 555/329/6 553/12/6
f 549/327/4 551/328/4 552/329/4 550/12/4
f 554/327/2 556/328/2 551/329/2 549/12/2
f 553/327/3 555/328/3 556/329/3 554/12/3
f 558/327/6 560/328/6 563/329/6 561/12/6
f 557/327/4 559/328/4 560/329/4 558/12/4
f 562/327/2 564/328/2 559/329/2 557/12/2
f 561/327/3 563/328/3 564/329/3 562/12/3
f 566/153/6 568/327/6 571/12/6 569/15/6
f 565/153/4 567/327/4 568/12/4 566/15/4
f 570/153/2 572/327/2 567/12/2 565/15/2
f 569/153/3 571/327/3 572/12/3 570/15/3
f 574/153/6 576/327/6 579/12/6 577/15/6
f 573/153/4 575/327/4 576/12/4 574/15/4
f 578/153/2 580/327/2 575/12/2 573/15/2
f 577/153/3 579/327/3 580/12/3 578/15/3
f 582/332/6 584/153/6 587/15/6 585/11/6
f 581/332/4 583/153/4 584/15/4 582/11/4
f 586/332/2 588/153/2 583/15/2 581/11/2
f 585/332/3 587/153/3 588/15/3 586/11/3
f 585/333/5 586/241/5 581/334/5 582/335/5
f 590/332/6 592/153/6 595/15/6 593/11/6
f 589/332/4 591/153/4 592/15/4 590/11/4
f 594/332/2 596/153/2 591/15/2 589/11/2
f 593/332/3 595/153/3 596/15/3 594/11/3
f 593/333/5 594/241/5 589/334/5 590/335/5
f 598/336/6 600/337/6 603/338/6 601/339/6
f 597/336/4 599/337/4 600/338/4 598/339/4
f 602/336/2 604/337/2 599/338/2 597/339/2
f 601/336/3 603/337/3 604/338/3 602/339/3
f 601/15/5 602/16/5 597/17/5 598/18/5
f 604/15/1 603/16/1 600/17/1 599/18/1
f 606/11/6 608/12/6 611/13/6 609/14/6
f 605/11/4 607/12/4 608/13/4 606/14/4
f 610/11/2 612/12/2 607/13/2 605/14/2
f 609/11/3 611/12/3 612/13/3 610/14/3
f 609/15/5 610/16/5 605/17/5 606/18/5
f 655/225/7 658/224/7 657/255/7 654/340/7
f 435/269/4 437/260/4 438/268/4 436/267/4
f 614/336/6 616/337/6 619/338/6 617/339/6
f 613/336/4 615/337/4 616/338/4 614/339/4
f 618/336/2 620/337/2 615/338/2 613/339/2
f 617/336/3 619/337/3 620/338/3 618/339/3
f 617/15/5 618/16/5 613/17/5 614/18/5
f 428/251/8 624/341/8 653/342/8 632/248/8
f 622/343/8 650/344/8 645/345/8 621/346/8
f 631/347/8 632/248/8 653/342/8 647/348/8
f 641/349/5 640/256/5 635/224/5 649/223/5
f 432/350/7 648/340/7 634/255/7 436/351/7
f 621/346/8 645/345/8 648/340/8 432/350/8
f 623/352/8 652/353/8 650/344/8 622/343/8
f 667/348/9 647/348/9 653/342/9 668/342/9
f 631/347/8 647/348/8 652/353/8 630/354/8
f 426/355/8 630/354/8 652/353/8 623/352/8
f 620/15/1 619/16/1 616/17/1 615/18/1
f 436/351/5 634/255/5 639/257/5 435/356/5
f 439/265/5 440/357/5 641/349/5 649/223/5
f 624/341/8 625/358/8 651/359/8 653/342/8
f 306/173/5 307/176/5 302/175/5 303/174/5
f 2/11/6 4/12/6 7/13/6 5/14/6
f 625/358/8 626/361/8 646/362/8 651/359/8
f 426/355/6 427/363/6 627/364/6 630/354/6
f 630/354/6 627/364/6 628/365/6 631/347/6
f 663/344/4 660/345/4 645/345/4 650/344/4
f 667/348/9 666/353/9 652/353/9 647/348/9
f 631/347/6 628/365/6 629/249/6 632/248/6
f 657/255/4 634/255/4 648/340/4 654/340/4
f 431/141/3 626/259/3 625/9/3 429/8/3
f 665/359/3 651/359/3 646/362/3 662/362/3
f 659/223/10 649/223/10 635/224/10 658/224/10
f 668/342/3 653/342/3 651/359/3 665/359/3
f 658/224/10 635/224/10 634/255/10 657/255/10
f 668/342/8 665/359/8 664/366/8 667/348/8
f 667/348/8 664/366/8 663/344/8 666/353/8
f 665/359/8 662/362/8 661/367/8 664/366/8
f 664/366/8 661/367/8 660/345/8 663/344/8
f 662/362/8 656/222/8 655/225/8 661/367/8
f 661/367/8 655/225/8 654/340/8 660/345/8
f 646/362/8 626/361/8 434/264/8 633/222/8
f 660/345/4 654/340/4 648/340/4 645/345/4
f 662/362/3 646/362/3 633/222/3 656/222/3
f 666/353/4 663/344/4 650/344/4 652/353/4
f 306/163/3 308/164/3 309/165/3 307/166/3
usemtl none
f 627/1/1 40/2/1 628/3/1
f 72/4/2 642/5/2 643/6/2
f 16/27/1 15/28/1 12/29/1 11/30/1
f 24/27/1 23/28/1 20/29/1 19/30/1
f 25/27/4 421/35/4 27/36/4 26/5/4
f 29/27/2 31/35/2 421/37/2 25/38/2
f 31/27/1 30/43/1 27/44/1 421/38/1
f 37/27/2 40/35/2 34/37/2 32/38/2
f 36/27/3 38/35/3 40/36/3 37/5/3
f 40/27/1 38/43/1 35/44/1 34/38/1
f 72/27/6 40/47/6 421/48/6 69/49/6
f 74/27/4 39/47/4 40/50/4 72/2/4
f 69/27/3 421/47/3 420/50/3 77/2/3
f 420/27/1 421/59/1 40/60/1 39/49/1
f 39/27/1 40/59/1 34/60/1 43/49/1
f 44/27/4 46/72/4 47/73/4 45/74/4
f 48/27/3 50/72/3 149/73/3 49/74/3
f 149/27/1 50/83/1 47/84/1 46/2/1
f 51/27/4 53/72/4 158/73/4 52/74/4
f 54/27/3 162/72/3 161/73/3 55/74/3
f 161/27/1 162/83/1 158/85/1 53/86/1
f 57/27/6 178/72/6 182/73/6 59/74/6
f 60/27/2 175/72/2 58/73/2 56/74/2
f 175/27/1 182/87/1 178/88/1 58/74/1
f 62/27/6 166/72/6 168/73/6 64/74/6
f 65/27/2 66/72/2 63/73/2 61/74/2
f 66/27/1 168/87/1 166/88/1 63/74/1
f 67/27/4 179/93/4 152/94/4 189/74/4
f 194/27/2 181/93/2 179/94/2 67/74/2
f 181/27/1 69/83/1 152/102/1 179/74/1
f 186/27/2 143/93/2 71/94/2 190/74/2
f 187/27/3 144/93/3 143/94/3 186/74/3
f 143/27/1 144/83/1 72/102/1 71/74/1
f 73/27/6 170/106/6 155/107/6 183/74/6
f 183/27/3 155/106/3 154/107/3 75/74/3
f 154/27/1 155/83/1 170/102/1 74/74/1
f 76/27/6 163/106/6 176/107/6 195/74/6
f 184/27/4 164/106/4 163/107/4 76/74/4
f 77/27/1 176/83/1 163/102/1 164/74/1
f 82/27/5 83/83/5 78/102/5 79/74/5
f 85/27/1 84/83/1 81/102/1 80/74/1
f 90/27/5 91/83/5 86/102/5 87/74/5
f 93/27/1 92/83/1 89/102/1 88/74/1
f 98/27/5 99/83/5 94/102/5 95/74/5
f 101/27/1 100/83/1 97/102/1 96/74/1
f 106/27/5 107/83/5 102/102/5 103/74/5
f 109/27/1 108/83/1 105/102/1 104/74/1
f 114/27/5 115/83/5 110/102/5 111/74/5
f 117/27/1 116/83/1 113/102/1 112/74/1
f 122/27/5 123/83/5 118/102/5 119/74/5
f 125/27/1 124/83/1 121/102/1 120/74/1
f 130/27/5 131/83/5 126/102/5 127/74/5
f 133/27/1 132/83/1 129/102/1 128/74/1
f 138/27/5 139/83/5 134/102/5 135/74/5
f 141/27/1 140/83/1 137/102/1 136/74/1
f 142/27/4 143/135/4 144/136/4 188/74/4
f 145/27/5 146/83/5 142/142/5 188/143/5
f 46/27/1 47/83/1 144/142/1 143/143/1
f 150/27/3 152/150/3 179/151/3 151/74/3
f 150/27/5 151/83/5 147/142/5 148/143/5
f 179/27/1 152/83/1 50/142/1 149/143/1
f 153/27/4 154/153/4 155/154/4 172/74/4
f 156/27/5 157/83/5 153/142/5 172/143/5
f 53/27/1 158/83/1 155/142/1 154/143/1
f 193/27/3 163/153/3 164/154/3 185/74/3
f 193/27/5 185/83/5 159/142/5 160/143/5
f 164/27/1 163/83/1 162/142/1 161/143/1
f 192/27/6 71/153/6 143/154/6 142/74/6
f 142/27/5 167/35/5 165/155/5 192/74/5
f 168/27/1 143/35/1 71/155/1 166/74/1
f 172/27/2 155/153/2 170/154/2 191/74/2
f 171/27/5 172/35/5 191/155/5 169/74/5
f 155/27/1 66/35/1 63/155/1 170/74/1
f 197/27/2 176/153/2 163/154/2 193/74/2
f 174/27/5 197/35/5 193/155/5 173/74/5
f 176/27/1 175/35/1 58/155/1 163/74/1
f 151/27/6 179/153/6 181/154/6 196/74/6
f 196/27/5 180/35/5 177/155/5 151/74/5
f 182/27/1 181/35/1 179/155/1 178/74/1
f 75/27/4 153/28/4 172/158/4 183/74/4
f 76/27/3 193/28/3 185/158/3 184/74/3
f 186/27/4 142/28/4 188/158/4 187/74/4
f 189/27/3 150/28/3 151/158/3 67/74/3
f 190/27/6 192/28/6 142/158/6 186/74/6
f 183/27/2 172/28/2 191/158/2 73/74/2
f 67/27/6 151/28/6 196/158/6 194/74/6
f 195/27/2 197/28/2 193/158/2 76/74/2
f 198/27/4 200/167/4 201/168/4 199/74/4
f 202/27/3 204/167/3 205/168/3 203/74/3
f 206/27/4 208/167/4 209/168/4 207/74/4
f 210/27/3 212/167/3 213/168/3 211/74/3
f 214/27/4 216/167/4 217/168/4 215/74/4
f 218/27/3 220/167/3 221/168/3 219/74/3
f 222/27/4 224/167/4 225/168/4 223/74/4
f 226/27/3 228/167/3 229/168/3 227/74/3
f 230/27/4 232/167/4 233/168/4 231/74/4
f 234/27/3 236/167/3 237/168/3 235/74/3
f 238/27/4 240/167/4 241/168/4 239/74/4
f 242/27/3 244/167/3 245/168/3 243/74/3
f 246/27/4 248/167/4 249/168/4 247/74/4
f 250/27/3 252/167/3 253/168/3 251/74/3
f 254/27/4 256/167/4 257/168/4 255/74/4
f 258/27/3 260/167/3 261/168/3 259/74/3
f 262/27/4 264/167/4 265/168/4 263/74/4
f 266/27/3 268/167/3 269/168/3 267/74/3
f 270/27/4 272/167/4 273/168/4 271/74/4
f 274/27/3 276/167/3 277/168/3 275/74/3
f 278/27/4 280/167/4 281/168/4 279/74/4
f 282/27/3 284/167/3 285/168/3 283/74/3
f 286/27/4 288/167/4 289/168/4 287/74/4
f 290/27/3 292/167/3 293/168/3 291/74/3
f 295/27/6 297/167/6 300/168/6 298/74/6
f 299/27/2 301/167/2 296/168/2 294/74/2
f 303/27/6 305/167/6 308/168/6 306/74/6
f 307/27/2 309/167/2 304/168/2 302/74/2
f 440/27/2 442/35/2 638/220/2 641/221/2
f 311/27/6 313/167/6 316/168/6 314/74/6
f 315/27/2 317/167/2 312/168/2 310/74/2
f 319/27/6 321/167/6 324/168/6 322/74/6
f 323/27/2 325/167/2 320/168/2 318/74/2
f 327/27/6 329/167/6 332/168/6 330/74/6
f 331/27/2 333/167/2 328/168/2 326/74/2
f 335/27/6 337/167/6 340/168/6 338/74/6
f 339/27/2 341/167/2 336/168/2 334/74/2
f 343/27/6 345/167/6 348/168/6 346/74/6
f 347/27/2 349/167/2 344/168/2 342/74/2
f 351/27/6 353/167/6 356/168/6 354/74/6
f 355/27/2 357/167/2 352/168/2 350/74/2
f 359/27/6 361/167/6 364/168/6 362/74/6
f 363/27/2 365/167/2 360/168/2 358/74/2
f 367/27/6 369/167/6 372/168/6 370/74/6
f 371/27/2 373/167/2 368/168/2 366/74/2
f 375/27/6 377/167/6 380/168/6 378/74/6
f 379/27/2 381/167/2 376/168/2 374/74/2
f 383/27/6 385/167/6 388/168/6 386/74/6
f 387/27/2 389/167/2 384/168/2 382/74/2
f 70/27/4 390/35/4 410/229/4 408/143/4
f 392/27/2 394/35/2 390/230/2 70/231/2
f 396/27/6 406/35/6 399/230/6 398/231/6
f 398/27/3 399/35/3 401/229/3 400/143/3
f 68/27/6 402/35/6 394/229/6 392/143/6
f 400/27/4 401/35/4 402/230/4 68/231/4
f 409/27/2 411/35/2 406/229/2 396/143/2
f 408/27/3 410/35/3 411/230/3 409/231/3
f 424/27/1 31/59/1 421/60/1 420/49/1
f 429/27/2 421/83/2 40/84/2 425/2/2
f 40/2/1 421/27/1 629/262/1 628/3/1
f 421/27/1 430/135/1 629/262/1
f 427/263/1 40/2/1 627/1/1
f 431/27/2 69/28/2 644/221/2
f 69/28/2 72/4/2 643/6/2
f 644/221/2 69/28/2 643/6/2
f 72/4/2 433/2/2 642/5/2
f 639/5/2 636/36/2 437/266/2 435/2/2
f 447/27/3 449/72/3 450/277/3 448/278/3
f 518/27/2 474/35/2 489/155/2 469/74/2
f 469/27/3 489/35/3 485/155/3 483/74/3
f 483/27/6 485/35/6 524/155/6 522/74/6
f 522/27/4 524/35/4 474/155/4 518/74/4
f 545/27/6 525/43/6 532/44/6 548/38/6
f 544/27/4 530/43/4 525/298/4 545/143/4
f 548/27/3 532/43/3 539/298/3 531/143/3
f 548/27/5 531/35/5 544/37/5 545/38/5
f 539/27/1 532/35/1 525/37/1 530/38/1
f 527/27/6 529/43/6 525/298/6 545/143/6
f 548/27/6 532/43/6 535/298/6 533/143/6
f 525/27/6 538/35/6 540/37/6 532/38/6
f 543/27/6 545/35/6 548/37/6 546/38/6
f 553/27/5 554/167/5 549/330/5 550/331/5
f 556/27/1 555/167/1 552/330/1 551/331/1
f 561/27/5 562/167/5 557/330/5 558/331/5
f 564/27/1 563/167/1 560/330/1 559/331/1
f 569/27/5 570/167/5 565/330/5 566/331/5
f 572/27/1 571/167/1 568/330/1 567/331/1
f 577/27/5 578/167/5 573/330/5 574/331/5
f 580/27/1 579/167/1 576/330/1 575/331/1
f 588/27/1 587/167/1 584/330/1 583/331/1
f 596/27/1 595/167/1 592/330/1 591/331/1
f 636/5/2 642/36/2 433/266/2 437/2/2
f 641/221/2 638/220/2 637/360/2 640/6/2
f 640/6/2 637/360/2 636/36/2 639/5/2
f 442/27/2 431/35/2 644/220/2 638/221/2
f 638/221/2 644/220/2 643/360/2 637/6/2
f 637/6/2 643/360/2 642/36/2 636/5/2
