# Blender 4.2.3 LTS
# www.blender.org
mtllib burner.mtl
o Insulation_3
v 2.250000 1.875000 0.437500
v 2.250000 1.875000 0.812500
v 2.250000 1.750000 0.437500
v 2.250000 1.750000 0.812500
v 2.625000 1.875000 0.812501
v 2.625000 1.875000 0.437501
v 2.625000 1.750000 0.812501
v 2.625000 1.750000 0.437501
v 0.468750 2.000000 0.531250
v 0.468750 2.000000 0.718750
v 0.468750 1.937500 0.531250
v 0.468750 1.937500 0.718750
v 0.656250 2.000000 0.718750
v 0.656250 2.000000 0.531250
v 0.656250 1.937500 0.718750
v 0.656250 1.937500 0.531250
v 2.343750 2.000000 0.531251
v 2.343750 2.000000 0.718751
v 2.343750 1.937500 0.531251
v 2.343750 1.937500 0.718751
v 2.531250 2.000000 0.718751
v 2.531250 2.000000 0.531251
v 2.531250 1.937500 0.718751
v 2.531250 1.937500 0.531251
v 2.000000 1.062500 1.125000
v 2.000000 1.062500 1.875000
v 2.000000 1.000000 1.875000
v 2.875000 1.062500 1.875000
v 2.875000 1.062500 1.125000
v 2.875000 1.000000 1.875000
v 2.875000 1.000000 1.125000
v 0.125000 1.062500 1.125000
v 0.125000 1.062500 1.875000
v 0.125000 1.000000 1.125000
v 0.125000 1.000000 1.875000
v 1.000000 1.062500 1.875000
v 1.000000 1.062500 1.125000
v 1.000000 1.000000 1.875000
v 1.000000 1.000000 0.125000
v 1.000000 1.000000 1.125000
v 0.125000 1.500000 0.125000
v 0.125000 1.500000 1.125000
v 0.125000 1.000000 0.125000
v 1.187500 1.937500 1.000000
v 1.187500 1.937500 1.125000
v 1.187500 1.500000 1.000000
v 1.187500 1.500000 1.125000
v 1.812500 1.937500 1.125000
v 1.812500 1.937500 1.000000
v 1.812500 1.500000 1.125000
v 1.187500 1.937500 0.125000
v 1.187500 1.937500 0.250000
v 1.187500 1.500000 0.125000
v 1.812500 1.937500 0.250000
v 1.812500 1.937500 0.125000
v 1.875000 1.937500 0.312500
v 1.875000 1.937500 0.937500
v 1.875000 1.500000 0.312500
v 2.000000 1.937500 0.937500
v 2.000000 1.937500 0.312500
v 1.000000 1.937500 0.312500
v 1.000000 1.937500 0.937500
v 1.000000 1.500000 0.312500
v 1.125000 1.937500 0.937500
v 1.125000 1.937500 0.312500
v 1.125000 1.500000 0.312500
v 1.875000 3.000000 1.000000
v 2.000000 3.000000 1.125000
v 2.000000 1.500000 1.125000
v 1.000000 3.000000 1.125000
v 1.000000 1.500000 1.000000
v 1.000000 1.500000 1.125000
v 1.000000 3.000000 0.250000
v 1.000000 1.500000 0.125000
v 1.125000 3.000000 0.125000
v 1.875000 3.000000 0.250000
v 2.000000 1.500000 0.125000
v 1.562500 2.812500 0.125000
v 1.562500 2.812500 0.250000
v 1.562500 1.937500 0.125000
v 1.562500 1.937500 0.250000
v 1.687500 2.812500 0.250000
v 1.687500 2.812500 0.125000
v 1.687500 1.937500 0.250000
v 1.687500 1.937500 0.125000
v 1.312500 2.812500 0.125000
v 1.312500 2.812500 0.250000
v 1.312500 1.937500 0.125000
v 1.312500 1.937500 0.250000
v 1.437500 2.812500 0.250000
v 1.437500 2.812500 0.125000
v 1.437500 1.937500 0.250000
v 1.437500 1.937500 0.125000
v 1.000000 2.812500 0.437500
v 1.000000 2.812500 0.562500
v 1.000000 1.937500 0.437500
v 1.000000 1.937500 0.562500
v 1.125000 2.812500 0.562500
v 1.125000 2.812500 0.437500
v 1.125000 1.937500 0.562500
v 1.125000 1.937500 0.437500
v 1.000000 2.812500 0.687500
v 1.000000 2.812500 0.812500
v 1.000000 1.937500 0.687500
v 1.000000 1.937500 0.812500
v 1.125000 2.812500 0.812500
v 1.125000 2.812500 0.687500
v 1.125000 1.937500 0.812500
v 1.125000 1.937500 0.687500
v 1.875000 2.812500 0.687501
v 1.875000 2.812500 0.812501
v 1.875000 1.937500 0.687500
v 1.875000 1.937500 0.812500
v 2.000000 2.812500 0.812501
v 2.000000 2.812500 0.687501
v 2.000000 1.937500 0.812500
v 2.000000 1.937500 0.687500
v 1.875000 2.812500 0.437500
v 1.875000 2.812500 0.562501
v 1.875000 1.937500 0.437500
v 1.875000 1.937500 0.562500
v 2.000000 2.812500 0.562501
v 2.000000 2.812500 0.437500
v 2.000000 1.937500 0.562500
v 2.000000 1.937500 0.437500
v 1.562500 2.812500 1.000000
v 1.562500 2.812500 1.125000
v 1.562500 1.937500 1.000000
v 1.562500 1.937500 1.125000
v 1.687500 2.812500 1.125000
v 1.687500 2.812500 1.000000
v 1.687500 1.937500 1.125000
v 1.687500 1.937500 1.000000
v 1.312500 2.812500 1.000000
v 1.312500 2.812500 1.125000
v 1.312500 1.937500 1.000000
v 1.312500 1.937500 1.125000
v 1.437500 2.812500 1.125000
v 1.437500 2.812500 1.000000
v 1.437500 1.937500 1.125000
v 1.437500 1.937500 1.000000
v 1.125000 2.812500 1.000000
v 1.125000 1.500000 1.000000
v 1.125000 1.500000 1.125000
v 1.187500 2.812500 1.125000
v 1.187500 2.812500 1.000000
v 1.812500 2.812500 1.000000
v 1.812500 2.812500 1.125000
v 1.812500 1.500000 1.000000
v 1.875000 2.812500 1.125000
v 1.875000 2.812500 1.000000
v 1.875000 1.500000 1.125000
v 1.125000 2.812500 0.125000
v 1.125000 1.500000 0.125000
v 1.125000 1.500000 0.250000
v 1.187500 2.812500 0.250000
v 1.187500 2.812500 0.125000
v 1.187500 1.500000 0.250000
v 1.812500 2.812500 0.125000
v 1.812500 2.812500 0.250000
v 1.812500 1.500000 0.125000
v 1.812500 1.500000 0.250000
v 1.875000 1.500000 0.250000
v 1.875000 1.500000 0.125000
v 1.000000 2.812500 0.937500
v 1.000000 1.500000 0.937500
v 1.125000 2.812500 0.937500
v 1.125000 1.500000 0.937500
v 1.000000 2.812500 0.312500
v 1.000000 1.500000 0.250000
v 1.125000 2.812500 0.312500
v 1.125000 2.812500 0.250000
v 1.875000 2.812500 0.312500
v 2.000000 2.812500 0.312500
v 2.000000 1.500000 0.312500
v 2.000000 1.500000 0.250000
v 1.875000 2.812500 0.937501
v 1.875000 1.500000 0.937500
v 1.875000 1.500000 1.000000
v 2.000000 2.812500 0.937501
v 2.000000 1.500000 1.000000
v 2.000000 1.500000 0.937500
v 1.125000 3.000000 0.250000
v 1.875000 3.000000 0.125000
v 1.875000 2.812500 0.125000
v 1.125000 3.000000 1.000000
v 1.125000 3.000000 1.125000
v 1.125000 2.812500 1.125000
v 1.875000 3.000000 1.125000
v 1.000000 3.000000 1.000000
v 1.000000 2.812500 0.250000
v 1.000000 2.812500 1.000000
v 1.875000 2.812500 0.250000
v 2.000000 3.000000 1.000000
v 2.000000 3.000000 0.250001
v 2.000000 2.812500 1.000000
v 2.000000 2.812500 0.250000
v 1.437500 2.312500 1.000000
v 1.437500 2.312500 1.125000
v 1.437500 2.062500 1.000000
v 1.437500 2.062500 1.125000
v 1.562500 2.312500 1.125000
v 1.562500 2.312500 1.000000
v 1.562500 2.062500 1.125000
v 1.562500 2.062500 1.000000
v 1.437500 2.687500 1.000000
v 1.437500 2.687500 1.125000
v 1.437500 2.437500 1.000000
v 1.437500 2.437500 1.125000
v 1.562500 2.687500 1.125000
v 1.562500 2.687500 1.000000
v 1.562500 2.437500 1.125000
v 1.562500 2.437500 1.000000
v 1.187500 2.312500 1.000000
v 1.187500 2.312500 1.125000
v 1.187500 2.062500 1.000000
v 1.187500 2.062500 1.125000
v 1.312500 2.312500 1.125000
v 1.312500 2.312500 1.000000
v 1.312500 2.062500 1.125000
v 1.312500 2.062500 1.000000
v 1.687500 2.312500 1.000000
v 1.687500 2.312500 1.125000
v 1.687500 2.062500 1.000000
v 1.687500 2.062500 1.125000
v 1.812500 2.312500 1.125000
v 1.812500 2.312500 1.000000
v 1.812500 2.062500 1.125000
v 1.812500 2.062500 1.000000
v 1.187500 2.687500 1.000000
v 1.187500 2.687500 1.125000
v 1.187500 2.437500 1.000000
v 1.187500 2.437500 1.125000
v 1.312500 2.687500 1.125000
v 1.312500 2.687500 1.000000
v 1.312500 2.437500 1.125000
v 1.312500 2.437500 1.000000
v 1.687500 2.687500 1.000000
v 1.687500 2.687500 1.125000
v 1.687500 2.437500 1.000000
v 1.687500 2.437500 1.125000
v 1.812500 2.687500 1.125000
v 1.812500 2.687500 1.000000
v 1.812500 2.437500 1.125000
v 1.812500 2.437500 1.000000
v 1.687500 2.687500 0.125000
v 1.687500 2.687500 0.250000
v 1.687500 2.437500 0.125000
v 1.687500 2.437500 0.250000
v 1.812500 2.687500 0.250000
v 1.812500 2.687500 0.125000
v 1.812500 2.437500 0.250000
v 1.812500 2.437500 0.125000
v 1.437500 2.687500 0.125000
v 1.437500 2.687500 0.250000
v 1.437500 2.437500 0.125000
v 1.437500 2.437500 0.250000
v 1.562500 2.687500 0.250000
v 1.562500 2.687500 0.125000
v 1.562500 2.437500 0.250000
v 1.562500 2.437500 0.125000
v 1.187500 2.687500 0.125000
v 1.187500 2.687500 0.250000
v 1.187500 2.437500 0.125000
v 1.187500 2.437500 0.250000
v 1.312500 2.687500 0.250000
v 1.312500 2.687500 0.125000
v 1.312500 2.437500 0.250000
v 1.312500 2.437500 0.125000
v 1.187500 2.312500 0.125000
v 1.187500 2.312500 0.250000
v 1.187500 2.062500 0.125000
v 1.187500 2.062500 0.250000
v 1.312500 2.312500 0.250000
v 1.312500 2.312500 0.125000
v 1.312500 2.062500 0.250000
v 1.312500 2.062500 0.125000
v 1.437500 2.312500 0.125000
v 1.437500 2.312500 0.250000
v 1.437500 2.062500 0.125000
v 1.437500 2.062500 0.250000
v 1.562500 2.312500 0.250000
v 1.562500 2.312500 0.125000
v 1.562500 2.062500 0.250000
v 1.562500 2.062500 0.125000
v 1.687500 2.312500 0.125000
v 1.687500 2.312500 0.250000
v 1.687500 2.062500 0.125000
v 1.687500 2.062500 0.250000
v 1.812500 2.312500 0.250000
v 1.812500 2.312500 0.125000
v 1.812500 2.062500 0.250000
v 1.812500 2.062500 0.125000
v 1.875000 2.312500 0.312500
v 1.875000 2.312500 0.437500
v 1.875000 2.062500 0.312500
v 1.875000 2.062500 0.437500
v 2.000000 2.312500 0.437500
v 2.000000 2.312500 0.312500
v 2.000000 2.062500 0.437500
v 2.000000 2.062500 0.312500
v 1.875000 2.312500 0.562500
v 1.875000 2.312500 0.687500
v 1.875000 2.062500 0.562500
v 1.875000 2.062500 0.687500
v 2.000000 2.312500 0.687500
v 2.000000 2.312500 0.562500
v 2.000000 2.062500 0.687500
v 2.000000 2.062500 0.562500
v 1.875000 2.312500 0.812500
v 1.875000 2.312500 0.937500
v 1.875000 2.062500 0.812500
v 1.875000 2.062500 0.937500
v 2.000000 2.312500 0.937500
v 2.000000 2.312500 0.812500
v 2.000000 2.062500 0.937500
v 2.000000 2.062500 0.812500
v 1.875000 2.687500 0.812500
v 1.875000 2.687500 0.937500
v 1.875000 2.437500 0.812500
v 1.875000 2.437500 0.937500
v 2.000000 2.687500 0.937501
v 2.000000 2.687500 0.812501
v 2.000000 2.437500 0.937500
v 2.000000 2.437500 0.812500
v 1.875000 2.687500 0.562500
v 1.875000 2.687500 0.687500
v 1.875000 2.437500 0.562500
v 1.875000 2.437500 0.687500
v 2.000000 2.687500 0.687501
v 2.000000 2.687500 0.562501
v 2.000000 2.437500 0.687500
v 2.000000 2.437500 0.562500
v 1.875000 2.687500 0.312500
v 1.875000 2.687500 0.437500
v 1.875000 2.437500 0.312500
v 1.875000 2.437500 0.437500
v 2.000000 2.687500 0.437500
v 2.000000 2.687500 0.312500
v 2.000000 2.437500 0.437500
v 2.000000 2.437500 0.312500
v 1.000000 2.687500 0.312500
v 1.000000 2.687500 0.437500
v 1.000000 2.437500 0.312500
v 1.000000 2.437500 0.437500
v 1.125000 2.687500 0.437500
v 1.125000 2.687500 0.312500
v 1.125000 2.437500 0.437500
v 1.125000 2.437500 0.312500
v 1.000000 2.687500 0.562500
v 1.000000 2.687500 0.687500
v 1.000000 2.437500 0.562500
v 1.000000 2.437500 0.687500
v 1.125000 2.687500 0.687500
v 1.125000 2.687500 0.562500
v 1.125000 2.437500 0.687500
v 1.125000 2.437500 0.562500
v 1.000000 2.687500 0.812500
v 1.000000 2.687500 0.937500
v 1.000000 2.437500 0.812500
v 1.000000 2.437500 0.937500
v 1.125000 2.687500 0.937500
v 1.125000 2.687500 0.812500
v 1.125000 2.437500 0.937500
v 1.125000 2.437500 0.812500
v 1.000000 2.312500 0.812500
v 1.000000 2.312500 0.937500
v 1.000000 2.062500 0.812500
v 1.000000 2.062500 0.937500
v 1.125000 2.312500 0.937500
v 1.125000 2.312500 0.812500
v 1.125000 2.062500 0.937500
v 1.125000 2.062500 0.812500
v 1.000000 2.312500 0.562500
v 1.000000 2.312500 0.687500
v 1.000000 2.062500 0.562500
v 1.000000 2.062500 0.687500
v 1.125000 2.312500 0.687500
v 1.125000 2.312500 0.562500
v 1.125000 2.062500 0.687500
v 1.125000 2.062500 0.562500
v 1.000000 2.312500 0.312500
v 1.000000 2.312500 0.437500
v 1.000000 2.062500 0.312500
v 1.000000 2.062500 0.437500
v 1.125000 2.312500 0.437500
v 1.125000 2.312500 0.312500
v 1.125000 2.062500 0.437500
v 1.125000 2.062500 0.312500
v 1.000000 2.937500 1.125000
v 2.062500 3.000000 1.187500
v 2.062500 3.000000 1.125000
v 2.062500 2.937500 1.187500
v 2.062500 2.937500 1.125000
v 0.937500 3.000000 0.062500
v 0.937500 3.000000 0.125000
v 0.937500 2.937500 0.062500
v 2.000000 3.000000 0.125001
v 2.000000 2.937500 0.125000
v 2.000000 3.000000 0.062501
v 2.000000 2.937500 0.062500
v 2.000000 2.937500 1.125000
v 2.062500 3.000000 0.062501
v 2.062500 2.937500 0.062501
v 0.937500 3.000000 1.187500
v 0.937500 2.937500 0.125000
v 0.937500 2.937500 1.187500
v 1.000000 3.000000 1.187500
v 1.000000 3.000000 0.125000
v 1.000000 2.937500 1.187500
v 1.000000 2.937500 0.125000
v -0.000000 1.000000 0.000000
v -0.000000 1.000000 2.000000
v -0.000000 0.000000 0.000000
v -0.000000 -0.000000 2.000000
v 3.000000 1.000000 2.000000
v 3.000000 1.000000 0.000001
v 3.000000 -0.000000 2.000000
v 3.000000 0.000000 0.000000
v 2.000000 1.000000 0.125000
v 2.000000 1.000000 1.125000
v 2.875000 1.500000 1.125001
v 2.875000 1.500000 0.125001
v 2.875000 1.000000 0.125000
v 1.000000 1.125000 1.125000
v 1.000000 1.125000 2.000000
v 1.000000 1.000000 2.000000
v 2.000000 1.125000 2.000000
v 2.000000 1.125000 1.125000
v 2.000000 1.000000 2.000000
v 2.000000 1.687500 1.125000
v 1.000000 1.750000 1.687500
v 1.000000 1.687500 1.125000
v 2.000000 1.750000 1.687500
v 1.000000 1.812500 1.125000
v 1.000000 1.812500 1.437500
v 1.000000 1.750000 1.125000
v 1.000000 1.750000 1.437500
v 2.000000 1.812500 1.437500
v 2.000000 1.812500 1.125000
v 2.000000 1.750000 1.437500
v 2.000000 1.750000 1.125000
v 0.937500 1.625000 1.250000
v 0.937500 1.625000 1.687500
v 0.937500 1.187500 1.250000
v 0.937500 1.187500 1.687500
v 1.000000 1.625000 1.687500
v 1.000000 1.625000 1.250000
v 1.000000 1.187500 1.687500
v 1.000000 1.187500 1.250000
v 2.000000 1.625000 1.250000
v 2.000000 1.625000 1.687500
v 2.000000 1.187500 1.250000
v 2.000000 1.187500 1.687500
v 2.062500 1.625000 1.687500
v 2.062500 1.625000 1.250000
v 2.062500 1.187500 1.687500
v 2.062500 1.187500 1.250000
v 1.437500 1.687500 0.562500
v 1.437500 1.687500 0.687500
v 1.437500 1.500000 0.562500
v 1.437500 1.500000 0.687500
v 1.562500 1.687500 0.687500
v 1.562500 1.687500 0.562500
v 1.562500 1.500000 0.687500
v 1.562500 1.500000 0.562500
v 1.437500 1.625000 0.687500
v 1.437500 1.625000 0.875000
v 1.437500 1.562500 0.875000
v 1.562500 1.625000 0.875000
v 1.562500 1.562500 0.875000
v 1.562500 1.562500 0.687500
v 1.375000 1.625000 0.875000
v 1.375000 1.625000 0.937500
v 1.375000 1.562500 0.875000
v 1.375000 1.562500 0.937500
v 1.500000 1.625000 0.937500
v 1.500000 1.625000 0.875000
v 1.500000 1.562500 0.937500
v 1.500000 1.562500 0.875000
v 1.437500 1.625000 0.562500
v 1.250000 1.625000 0.562500
v 1.437500 1.562500 0.562500
v 1.250000 1.562500 0.562500
v 1.250000 1.625000 0.687500
v 1.250000 1.562500 0.687500
v 1.437500 1.562500 0.687500
v 1.187500 1.625000 0.625000
v 1.250000 1.625000 0.625000
v 1.187500 1.562500 0.625000
v 1.250000 1.562500 0.625000
v 1.250000 1.625000 0.500000
v 1.187500 1.625000 0.500000
v 1.250000 1.562500 0.500000
v 1.187500 1.562500 0.500000
v 1.625000 1.625000 0.375000
v 1.625000 1.625000 0.312500
v 1.625000 1.562500 0.375000
v 1.625000 1.562500 0.312500
v 1.500000 1.625000 0.312500
v 1.500000 1.625000 0.375000
v 1.500000 1.562500 0.312500
v 1.500000 1.562500 0.375000
v 1.562500 1.625000 0.375000
v 1.562500 1.562500 0.375000
v 1.437500 1.625000 0.375000
v 1.437500 1.562500 0.375000
v 1.750000 1.625000 0.750000
v 1.812500 1.625000 0.750000
v 1.750000 1.562500 0.750000
v 1.812500 1.562500 0.750000
v 1.812500 1.625000 0.625000
v 1.750000 1.625000 0.625000
v 1.812500 1.562500 0.625000
v 1.750000 1.562500 0.625000
v 1.562500 1.625000 0.687500
v 1.750000 1.625000 0.687500
v 1.750000 1.562500 0.687500
v 1.750000 1.625000 0.562500
v 1.562500 1.625000 0.562500
v 1.750000 1.562500 0.562500
v 1.562500 1.562500 0.562500
v 1.062500 1.125000 0.125000
v 1.000000 1.875000 0.062500
v 1.000000 1.875000 0.125000
v 1.000000 1.125000 0.062500
v 1.000000 1.125000 0.125000
v 1.062500 1.125000 0.062500
v 1.937500 1.875000 0.062500
v 1.937500 1.125000 0.125000
v 2.000000 1.875000 0.125000
v 2.000000 1.875000 0.062500
v 2.000000 1.125000 0.125000
v 2.000000 1.125000 0.062500
v 1.062500 1.062500 0.062500
v 1.062500 1.062500 0.125000
v 1.937500 1.125000 0.062500
v 1.937500 1.062500 0.125000
v 1.937500 1.062500 0.062500
v 1.062500 1.937500 0.062500
v 1.062500 1.937500 0.125000
v 1.062500 1.875000 0.062500
v 1.062500 1.875000 0.125000
v 1.937500 1.937500 0.125000
v 1.937500 1.937500 0.062500
v 1.937500 1.875000 0.125000
v 0.437500 1.562500 0.500000
v 0.437500 1.562500 0.750000
v 0.437500 1.500000 0.500000
v 0.437500 1.500000 0.750000
v 0.687500 1.562500 0.750000
v 0.687500 1.562500 0.500000
v 0.687500 1.500000 0.750000
v 0.687500 1.500000 0.500000
v 2.312500 1.562500 0.500000
v 2.312500 1.562500 0.750000
v 2.312500 1.500000 0.500000
v 2.312500 1.500000 0.750000
v 2.562500 1.562500 0.750001
v 2.562500 1.562500 0.500001
v 2.562500 1.500000 0.750001
v 2.562500 1.500000 0.500001
v 0.437500 1.750000 0.500000
v 0.437500 1.750000 0.750000
v 0.437500 1.687500 0.500000
v 0.437500 1.687500 0.750000
v 0.687500 1.750000 0.750000
v 0.687500 1.750000 0.500000
v 0.687500 1.687500 0.750000
v 0.687500 1.687500 0.500000
v 2.312500 1.750000 0.500000
v 2.312500 1.750000 0.750000
v 2.312500 1.687500 0.500000
v 2.312500 1.687500 0.750000
v 2.562500 1.750000 0.750001
v 2.562500 1.750000 0.500001
v 2.562500 1.687500 0.750001
v 2.562500 1.687500 0.500001
v 0.437500 1.937500 0.500000
v 0.437500 1.937500 0.750000
v 0.437500 1.875000 0.500000
v 0.437500 1.875000 0.750000
v 0.687500 1.937500 0.750000
v 0.687500 1.937500 0.500000
v 0.687500 1.875000 0.750000
v 0.687500 1.875000 0.500000
v 2.312500 1.937500 0.500001
v 2.312500 1.937500 0.750001
v 2.312500 1.875000 0.500000
v 2.312500 1.875000 0.750000
v 2.562500 1.937500 0.750001
v 2.562500 1.937500 0.500001
v 2.562500 1.875000 0.750001
v 2.562500 1.875000 0.500001
v 0.375000 1.687500 0.437500
v 0.375000 1.687500 0.812500
v 0.375000 1.562500 0.437500
v 0.375000 1.562500 0.812500
v 0.750000 1.687500 0.812500
v 0.750000 1.687500 0.437500
v 0.750000 1.562500 0.812500
v 0.750000 1.562500 0.437500
v 0.375000 1.875000 0.437500
v 0.375000 1.875000 0.812500
v 0.375000 1.750000 0.437500
v 0.375000 1.750000 0.812500
v 0.750000 1.875000 0.812500
v 0.750000 1.875000 0.437500
v 0.750000 1.750000 0.812500
v 0.750000 1.750000 0.437500
v 2.250000 1.687500 0.437500
v 2.250000 1.687500 0.812500
v 2.250000 1.562500 0.437500
v 2.250000 1.562500 0.812500
v 2.625000 1.687500 0.812501
v 2.625000 1.687500 0.437500
v 2.625000 1.562500 0.812501
v 2.625000 1.562500 0.437500
v 1.000000 1.593750 1.765625
v 1.000000 1.437500 1.843750
v 1.000000 1.281250 1.921875
v 2.000000 1.281250 1.921875
v 2.000000 1.437500 1.843750
v 2.000000 1.593750 1.765625
v 1.250000 1.000000 2.000000
v 1.500000 1.000000 2.000000
v 1.750000 1.000000 2.000000
v 1.250000 1.125000 2.000000
v 1.500000 1.125000 2.000000
v 1.750000 1.125000 2.000000
v 1.750000 1.750000 1.687500
v 1.250000 1.812500 1.437500
v 1.500000 1.812500 1.437500
v 1.250000 1.750000 1.125000
v 1.500000 1.750000 1.125000
v 1.750000 1.750000 1.125000
v 1.250000 1.812500 1.125000
v 1.500000 1.812500 1.125000
v 1.750000 1.812500 1.125000
v 1.250000 1.687500 1.125000
v 1.500000 1.687500 1.125000
v 1.750000 1.687500 1.125000
v 1.250000 1.593750 1.765625
v 1.750000 1.593750 1.765625
v 1.500000 1.281250 1.921875
v 1.250000 1.750000 1.687500
v 1.750000 1.812500 1.437500
v 1.250000 1.437500 1.843750
v 1.750000 1.437500 1.843750
v 1.250000 1.281250 1.921875
v 1.750000 1.281250 1.921875
v 1.250000 1.811729 1.765625
v 1.500000 1.811729 1.765625
v 1.750000 1.811729 1.765625
v 1.250000 1.874229 1.515625
v 1.500000 1.874229 1.515625
v 1.750000 1.874229 1.515625
v 1.250000 1.655479 1.843750
v 1.500000 1.655479 1.843750
v 1.750000 1.655479 1.843750
v 1.250000 1.499229 1.921875
v 1.500000 1.499229 1.921875
v 1.750000 1.499229 1.921875
v 1.250000 1.342979 2.000000
v 1.500000 1.342979 2.000000
v 1.750000 1.342979 2.000000
vn 1.0000 -0.0000 -0.0000
vn -1.0000 -0.0000 -0.0000
vn -0.0000 -0.0000 -1.0000
vn -0.0000 1.0000 -0.0000
vn -0.0000 -1.0000 -0.0000
vn -0.0000 -0.0000 1.0000
vn -0.0000 0.9701 0.2425
vn -0.0000 0.4472 0.8944
vn -0.0000 -0.7846 0.6200
vn -0.0000 0.7846 -0.6200
vt 0.865234 0.769531
vt 0.765625 0.750000
vt 0.855469 0.789062
vt 0.000000 0.000000
vt 0.031250 0.843750
vt 0.031250 0.828125
vt 0.078125 0.828125
vt 0.078125 0.843750
vt 0.031250 0.835938
vt 0.031250 0.789062
vt 0.078125 0.789062
vt 0.078125 0.835938
vt 0.062500 0.851562
vt 0.070312 0.851562
vt 0.070312 0.875000
vt 0.062500 0.875000
vt 0.031250 0.875000
vt 0.031250 0.851562
vt 0.054688 0.851562
vt 0.054688 0.875000
vt 0.640625 0.617188
vt 0.640625 0.609375
vt 0.750000 0.609375
vt 0.750000 0.617188
vt 0.742188 0.609375
vt 0.750000 0.703125
vt 0.742188 0.703125
vt 0.640625 0.703125
vt 0.648438 0.609375
vt 0.648438 0.703125
vt 0.507812 0.851562
vt 0.507812 0.789062
vt 0.632812 0.789062
vt 0.632812 0.851562
vt 0.507812 0.992188
vt 0.507812 0.867188
vt 0.632812 0.867188
vt 0.632812 0.992188
vt 0.617188 0.789062
vt 0.617188 0.851562
vt 0.523438 0.851562
vt 0.523438 0.789062
vt 0.765625 0.703125
vt 0.765625 0.812500
vt 0.640625 0.812500
vt 0.398438 0.867188
vt 0.398438 0.812500
vt 0.476562 0.812500
vt 0.476562 0.867188
vt 0.664062 0.867188
vt 0.664062 0.812500
vt 0.742188 0.812500
vt 0.742188 0.867188
vt 0.765625 1.000000
vt 0.765625 0.984375
vt 0.843750 0.984375
vt 0.843750 1.000000
vt 0.484375 1.000000
vt 0.484375 0.812500
vt 0.500000 0.812500
vt 0.500000 1.000000
vt 0.375000 1.000000
vt 0.375000 0.812500
vt 0.390625 0.812500
vt 0.390625 1.000000
vt 0.632812 0.882812
vt 0.617188 0.882812
vt 0.617188 0.867188
vt 0.523438 0.867188
vt 0.523438 0.882812
vt 0.507812 0.882812
vt 0.523438 0.976562
vt 0.523438 0.992188
vt 0.507812 0.976562
vt 0.632812 0.976562
vt 0.617188 0.992188
vt 0.617188 0.976562
vt 0.710938 0.976562
vt 0.710938 0.867188
vt 0.726562 0.867188
vt 0.726562 0.976562
vt 0.781250 0.984375
vt 0.781250 0.875000
vt 0.765625 0.875000
vt 0.414062 0.976562
vt 0.414062 0.867188
vt 0.429688 0.867188
vt 0.429688 0.976562
vt 0.679688 0.976562
vt 0.679688 0.867188
vt 0.695312 0.867188
vt 0.695312 0.976562
vt 0.445312 0.976562
vt 0.445312 0.867188
vt 0.460938 0.867188
vt 0.460938 0.976562
vt 0.390625 0.976562
vt 0.398438 0.976562
vt 0.742188 0.976562
vt 0.750000 0.812500
vt 0.750000 0.976562
vt 0.781250 0.820312
vt 0.765625 0.820312
vt 0.476562 0.976562
vt 0.484375 0.976562
vt 0.656250 0.976562
vt 0.656250 0.859375
vt 0.664062 0.859375
vt 0.664062 0.976562
vt 0.656250 0.812500
vt 0.656250 1.000000
vt 0.750000 1.000000
vt 0.757812 1.000000
vt 0.757812 0.984375
vt 0.851562 0.984375
vt 0.851562 1.000000
vt 0.429688 0.914062
vt 0.429688 0.882812
vt 0.445312 0.882812
vt 0.445312 0.914062
vt 0.695312 0.914062
vt 0.695312 0.882812
vt 0.710938 0.882812
vt 0.710938 0.914062
vt 0.796875 1.000000
vt 0.796875 0.984375
vt 0.812500 0.984375
vt 0.812500 1.000000
vt 0.429688 0.960938
vt 0.429688 0.929688
vt 0.445312 0.929688
vt 0.445312 0.960938
vt 0.695312 0.960938
vt 0.695312 0.929688
vt 0.710938 0.929688
vt 0.710938 0.960938
vt 0.398438 0.914062
vt 0.398438 0.882812
vt 0.414062 0.882812
vt 0.414062 0.914062
vt 0.726562 0.914062
vt 0.726562 0.882812
vt 0.742188 0.882812
vt 0.742188 0.914062
vt 0.781250 1.000000
vt 0.460938 0.914062
vt 0.460938 0.882812
vt 0.476562 0.882812
vt 0.476562 0.914062
vt 0.664062 0.914062
vt 0.664062 0.882812
vt 0.679688 0.882812
vt 0.679688 0.914062
vt 0.828125 1.000000
vt 0.828125 0.984375
vt 0.398438 0.960938
vt 0.398438 0.929688
vt 0.414062 0.929688
vt 0.414062 0.960938
vt 0.726562 0.960938
vt 0.726562 0.929688
vt 0.742188 0.929688
vt 0.742188 0.960938
vt 0.460938 0.960938
vt 0.460938 0.929688
vt 0.476562 0.929688
vt 0.476562 0.960938
vt 0.664062 0.960938
vt 0.664062 0.929688
vt 0.679688 0.929688
vt 0.679688 0.960938
vt 0.968750 0.937500
vt 0.968750 0.960938
vt 0.937500 0.960937
vt 0.937500 0.937500
vt 0.507812 0.859375
vt 0.640625 0.859375
vt 0.640625 0.867188
vt 0.632812 0.859375
vt 0.500000 0.992188
vt 0.507812 1.000000
vt 0.632812 1.000000
vt 0.640625 0.992188
vt 0.640625 1.000000
vt 0.500000 0.867188
vt 0.500000 0.859375
vt 0.000000 1.000000
vt 0.000000 0.875000
vt 0.375000 0.875000
vt 0.000000 0.773438
vt 0.000000 0.648438
vt 0.250000 0.648438
vt 0.250000 0.773438
vt 0.625000 0.523438
vt 0.625000 0.773438
vt 0.250000 0.523438
vt 0.968750 0.851562
vt 0.968750 0.835938
vt 1.000000 0.835938
vt 1.000000 0.851562
vt 0.765625 0.734375
vt 0.875000 0.734375
vt 0.875000 0.750000
vt 0.906250 0.960938
vt 0.937500 1.000000
vt 0.906250 1.000000
vt 0.835938 0.828125
vt 0.845703 0.808594
vt 0.765625 0.828125
vt 1.000000 0.937500
vt 1.000000 0.960938
vt 0.804688 0.835938
vt 0.804688 0.828125
vt 0.765625 0.835938
vt 0.367188 0.875000
vt 0.367188 0.820312
vt 0.375000 0.820312
vt 0.320312 0.875000
vt 0.320312 0.820312
vt 0.328125 0.820312
vt 0.328125 0.875000
vt 0.375000 0.867188
vt 0.320312 0.867188
vt 0.320312 0.828125
vt 0.375000 0.828125
vt 0.796875 0.976562
vt 0.796875 0.953125
vt 0.812500 0.953125
vt 0.812500 0.976562
vt 0.812500 0.968750
vt 0.828125 0.968750
vt 0.796875 0.968750
vt 0.781250 0.968750
vt 0.781250 0.976562
vt 0.789062 0.953125
vt 0.789062 0.976562
vt 0.781250 0.953125
vt 0.804688 0.984375
vt 0.804688 0.976562
vt 0.789062 0.984375
vt 0.062500 0.640625
vt 0.062500 0.546875
vt 0.171875 0.546875
vt 0.171875 0.640625
vt 0.179688 0.546875
vt 0.179688 0.640625
vt 0.171875 0.632812
vt 0.179688 0.632812
vt 0.171875 0.554688
vt 0.179688 0.554688
vt 0.054688 0.640625
vt 0.054688 0.546875
vt 0.054688 0.632812
vt 0.062500 0.632812
vt 0.054688 0.554688
vt 0.062500 0.554688
vt 0.164062 0.546875
vt 0.164062 0.539062
vt 0.171875 0.539062
vt 0.062500 0.539062
vt 0.070312 0.539062
vt 0.070312 0.546875
vt 0.164062 0.648438
vt 0.164062 0.640625
vt 0.171875 0.648438
vt 0.062500 0.648438
vt 0.070312 0.640625
vt 0.070312 0.648438
vt 0.000000 0.828125
vt 0.000000 0.820312
vt 0.031250 0.820312
vt 0.000000 0.835938
vt 0.000000 0.843750
vt 0.000000 0.804688
vt 0.031250 0.773438
vt 0.031250 0.804688
vt 0.031250 0.796875
vt 0.031250 0.781250
vt 0.078125 0.781250
vt 0.078125 0.796875
vt 0.906250 0.937500
vt 1.000000 0.873047
vt 0.968750 0.873047
vt 0.875000 0.894531
vt 0.906250 0.894531
vt 0.906250 0.916016
vt 0.875000 0.916016
vt 0.937500 0.851562
vt 0.937500 0.873047
vt 0.968750 1.000000
vt 0.875000 0.937500
vt 0.875000 0.960938
vt 0.875000 0.873047
vt 0.906250 0.873047
vt 0.906250 0.851562
vt 0.875000 0.851562
vt 0.875000 1.000000
vt 1.000000 1.000000
vt 1.000000 0.894531
vt 0.968750 0.894531
vt 1.000000 0.916016
vt 0.968750 0.916016
vt 0.875000 0.835938
vt 0.906250 0.835938
vt 0.937500 0.835938
vt 0.937500 0.894531
vt 0.937500 0.916016
vt 0.093750 0.890625
vt 0.125000 1.000000
vt 0.062500 0.890625
vt 0.125000 0.976562
vt 0.093750 1.000000
vt 0.062500 1.000000
vt 0.000000 0.976562
vt 0.023438 0.976562
vt 0.023438 1.000000
vt 0.000000 0.992188
vt 0.093750 0.992188
vt 0.109375 0.992188
vt 0.109375 1.000000
vt 0.000000 0.906250
vt 0.109375 0.906250
vt 0.000000 0.937500
vt 0.343750 0.937500
vt 0.343750 1.000000
vt 0.125000 0.937500
vt 0.343750 0.875000
vt 0.000000 0.945312
vt 0.015625 0.945312
vt 0.015625 1.000000
vt 0.000000 0.984375
vt 0.125000 0.984375
vt 0.078125 0.984375
vt 0.078125 1.000000
vt 0.000000 0.921875
vt 0.015625 0.921875
vt 0.000000 0.867188
vt 0.015625 0.867188
vt 0.015625 0.984375
vt 0.000000 0.812500
vt 0.015625 0.812500
vt 0.000000 0.890625
vt 0.015625 0.890625
vt 0.007812 0.984375
vt 0.007812 1.000000
vt 0.000000 0.882812
vt 0.015625 0.882812
vt 0.015625 0.835938
vt 0.015625 0.992188
vt 0.015625 0.976562
vt 0.000000 0.968750
vt 0.015625 0.968750
vt 0.031250 0.992188
vt 0.031250 1.000000
vt 0.007812 0.992188
vt 0.132812 0.992188
vt 0.132812 1.000000
vt 0.031250 0.890625
vt 0.125000 0.890625
vt 0.125000 0.992188
vt 0.054688 0.945312
vt 0.054688 1.000000
vt 0.007812 0.906250
vt 0.031250 0.968750
vt 0.062500 0.992188
s 0
usemtl m_0b2e108c-0c44-a081-5bc3-d47dcbc0cc1e
f 622/1/1 429/2/1 623/3/1
f 438/4/2 432/4/2 436/4/2
f 441/4/1 439/4/1 434/4/1
f 1/5/2 3/6/2 4/7/2 2/8/2
f 6/5/3 8/6/3 3/7/3 1/8/3
f 5/5/1 7/6/1 8/7/1 6/8/1
f 5/9/4 6/10/4 1/11/4 2/12/4
f 8/9/5 7/10/5 4/11/5 3/12/5
f 10/13/6 12/14/6 15/15/6 13/16/6
f 9/13/2 11/14/2 12/15/2 10/16/2
f 14/13/3 16/14/3 11/15/3 9/16/3
f 13/13/1 15/14/1 16/15/1 14/16/1
f 13/17/4 14/18/4 9/19/4 10/20/4
f 18/13/6 20/14/6 23/15/6 21/16/6
f 17/13/2 19/14/2 20/15/2 18/16/2
f 22/13/3 24/14/3 19/15/3 17/16/3
f 21/13/1 23/14/1 24/15/1 22/16/1
f 21/17/4 22/18/4 17/19/4 18/20/4
f 26/21/6 27/22/6 30/23/6 28/24/6
f 28/25/1 30/23/1 31/26/1 29/27/1
f 28/22/4 29/28/4 25/26/4 26/23/4
f 33/21/6 35/22/6 38/23/6 36/24/6
f 32/22/2 34/29/2 35/30/2 33/28/2
f 36/22/4 37/28/4 32/26/4 33/23/4
f 77/31/3 420/32/3 39/33/3 74/34/3
f 69/35/4 77/36/4 74/37/4 72/38/4
f 42/31/6 34/32/6 40/39/6 72/40/6
f 41/31/2 43/32/2 34/33/2 42/34/2
f 74/41/3 39/42/3 43/33/3 41/34/3
f 72/28/4 74/43/4 41/44/4 42/45/4
f 45/46/6 47/47/6 50/48/6 48/49/6
f 49/50/3 149/51/3 46/52/3 44/53/3
f 48/54/4 49/55/4 44/56/4 45/57/4
f 52/50/6 158/51/6 162/52/6 54/53/6
f 55/46/3 161/47/3 53/48/3 51/49/3
f 54/55/4 55/54/4 51/57/4 52/56/4
f 56/50/2 58/51/2 178/52/2 57/53/2
f 59/46/1 182/47/1 175/48/1 60/49/1
f 59/54/4 60/57/4 56/56/4 57/55/4
f 61/46/2 63/47/2 166/48/2 62/49/2
f 64/50/1 168/51/1 66/52/1 65/53/1
f 64/55/4 65/56/4 61/57/4 62/54/4
f 189/58/6 152/59/6 69/60/6 68/61/6
f 68/62/1 69/63/1 181/64/1 194/65/1
f 68/37/4 194/66/4 67/67/4 189/68/4
f 70/62/6 72/63/6 144/64/6 187/65/6
f 190/58/2 71/59/2 72/60/2 70/61/2
f 187/69/4 186/70/4 190/71/4 70/36/4
f 409/62/2 74/63/2 170/64/2 73/65/2
f 75/58/3 154/59/3 74/60/3 409/61/3
f 183/72/4 75/73/4 409/35/4 73/74/4
f 398/62/3 77/63/3 164/64/3 184/65/3
f 195/58/1 176/59/1 77/60/1 398/61/1
f 195/75/4 398/38/4 184/76/4 76/77/4
f 79/78/6 81/79/6 84/80/6 82/81/6
f 78/82/2 80/83/2 81/84/2 79/55/2
f 83/85/3 85/86/3 80/87/3 78/88/3
f 82/55/1 84/84/1 85/83/1 83/82/1
f 87/89/6 89/90/6 92/91/6 90/92/6
f 86/82/2 88/83/2 89/84/2 87/55/2
f 91/93/3 93/94/3 88/95/3 86/96/3
f 90/55/1 92/84/1 93/83/1 91/82/1
f 95/82/6 97/83/6 100/84/6 98/55/6
f 94/85/2 96/86/2 97/87/2 95/88/2
f 99/55/3 101/84/3 96/83/3 94/82/3
f 98/78/1 100/79/1 101/80/1 99/81/1
f 103/82/6 105/83/6 108/84/6 106/55/6
f 102/93/2 104/94/2 105/95/2 103/96/2
f 107/55/3 109/84/3 104/83/3 102/82/3
f 106/89/1 108/90/1 109/91/1 107/92/1
f 111/55/6 113/84/6 116/83/6 114/82/6
f 110/78/2 112/79/2 113/80/2 111/81/2
f 115/82/3 117/83/3 112/84/3 110/55/3
f 114/85/1 116/86/1 117/87/1 115/88/1
f 119/55/6 121/84/6 124/83/6 122/82/6
f 118/89/2 120/90/2 121/91/2 119/92/2
f 123/82/3 125/83/3 120/84/3 118/55/3
f 122/93/1 124/94/1 125/95/1 123/96/1
f 127/93/6 129/94/6 132/95/6 130/96/6
f 126/55/2 128/84/2 129/83/2 127/82/2
f 131/89/3 133/90/3 128/91/3 126/92/3
f 130/82/1 132/83/1 133/84/1 131/55/1
f 135/85/6 137/86/6 140/87/6 138/88/6
f 134/55/2 136/84/2 137/83/2 135/82/2
f 139/78/3 141/79/3 136/80/3 134/81/3
f 138/82/1 140/83/1 141/84/1 139/55/1
f 188/97/6 144/64/6 47/47/6 145/98/6
f 146/99/3 46/52/3 143/100/3 142/101/3
f 145/82/1 47/102/1 46/103/1 146/55/1
f 148/104/6 50/48/6 152/59/6 150/105/6
f 147/55/2 149/103/2 50/102/2 148/82/2
f 151/106/3 179/107/3 149/108/3 147/109/3
f 172/106/6 155/110/6 158/51/6 156/109/6
f 157/104/3 53/48/3 154/59/3 153/105/3
f 156/55/1 158/103/1 53/102/1 157/82/1
f 160/99/6 162/52/6 163/100/6 193/101/6
f 159/82/2 161/102/2 162/103/2 160/55/2
f 185/97/3 164/64/3 161/47/3 159/98/3
f 165/104/2 166/48/2 71/59/2 192/105/2
f 167/55/3 168/103/3 166/102/3 165/82/3
f 142/106/1 143/110/1 168/51/1 167/109/1
f 169/82/6 63/102/6 66/103/6 171/55/6
f 191/97/2 170/64/2 63/47/2 169/98/2
f 171/99/1 66/52/1 155/100/1 172/101/1
f 173/55/6 58/103/6 175/102/6 174/82/6
f 193/106/2 163/110/2 58/51/2 173/109/2
f 174/104/1 175/48/1 176/59/1 197/105/1
f 177/99/2 178/52/2 179/100/2 151/101/2
f 180/82/3 182/102/3 178/103/3 177/55/3
f 196/97/1 181/64/1 182/47/1 180/98/1
f 183/111/6 172/106/6 193/101/6 76/112/6
f 184/65/3 185/97/3 153/105/3 75/58/3
f 76/77/4 184/76/4 75/73/4 183/72/4
f 185/113/5 193/114/5 172/115/5 153/116/5
f 187/65/6 188/97/6 150/105/6 189/58/6
f 67/111/3 151/106/3 142/101/3 186/112/3
f 189/68/4 67/67/4 186/70/4 187/69/4
f 151/114/5 150/113/5 188/116/5 142/115/5
f 73/65/2 191/97/2 192/105/2 190/58/2
f 186/111/1 142/106/1 172/101/1 183/112/1
f 186/70/4 183/72/4 73/74/4 190/71/4
f 172/114/5 142/115/5 192/116/5 191/113/5
f 76/111/2 193/106/2 151/101/2 67/112/2
f 194/65/1 196/97/1 197/105/1 195/58/1
f 194/66/4 195/75/4 76/77/4 67/67/4
f 197/113/5 196/116/5 151/115/5 193/114/5
f 199/117/6 201/118/6 204/119/6 202/120/6
f 203/121/3 205/122/3 200/123/3 198/124/3
f 202/125/4 203/126/4 198/127/4 199/128/4
f 205/126/5 204/125/5 201/128/5 200/127/5
f 207/129/6 209/130/6 212/131/6 210/132/6
f 211/133/3 213/134/3 208/135/3 206/136/3
f 210/125/4 211/126/4 206/127/4 207/128/4
f 213/126/5 212/125/5 209/128/5 208/127/5
f 215/137/6 217/138/6 220/139/6 218/140/6
f 219/141/3 221/142/3 216/143/3 214/144/3
f 218/54/4 219/55/4 214/82/4 215/145/4
f 221/55/5 220/54/5 217/145/5 216/82/5
f 223/146/6 225/147/6 228/148/6 226/149/6
f 227/150/3 229/151/3 224/152/3 222/153/3
f 226/154/4 227/155/4 222/56/4 223/57/4
f 229/155/5 228/154/5 225/57/5 224/56/5
f 231/156/6 233/157/6 236/158/6 234/159/6
f 235/160/3 237/161/3 232/162/3 230/163/3
f 234/54/4 235/55/4 230/82/4 231/145/4
f 237/55/5 236/54/5 233/145/5 232/82/5
f 239/164/6 241/165/6 244/166/6 242/167/6
f 243/168/3 245/169/3 240/170/3 238/171/3
f 242/154/4 243/155/4 238/56/4 239/57/4
f 245/155/5 244/154/5 241/57/5 240/56/5
f 247/160/6 249/161/6 252/162/6 250/163/6
f 251/156/3 253/157/3 248/158/3 246/159/3
f 250/55/4 251/54/4 246/145/4 247/82/4
f 253/54/5 252/55/5 249/82/5 248/145/5
f 255/133/6 257/134/6 260/135/6 258/136/6
f 259/129/3 261/130/3 256/131/3 254/132/3
f 258/126/4 259/125/4 254/128/4 255/127/4
f 261/125/5 260/126/5 257/127/5 256/128/5
f 263/168/6 265/169/6 268/170/6 266/171/6
f 267/164/3 269/165/3 264/166/3 262/167/3
f 266/155/4 267/154/4 262/57/4 263/56/4
f 269/154/5 268/155/5 265/56/5 264/57/5
f 271/150/6 273/151/6 276/152/6 274/153/6
f 275/146/3 277/147/3 272/148/3 270/149/3
f 274/155/4 275/154/4 270/57/4 271/56/4
f 277/154/5 276/155/5 273/56/5 272/57/5
f 279/121/6 281/122/6 284/123/6 282/124/6
f 283/117/3 285/118/3 280/119/3 278/120/3
f 282/126/4 283/125/4 278/128/4 279/127/4
f 285/125/5 284/126/5 281/127/5 280/128/5
f 287/141/6 289/142/6 292/143/6 290/144/6
f 291/137/3 293/138/3 288/139/3 286/140/3
f 290/55/4 291/54/4 286/145/4 287/82/4
f 293/54/5 292/55/5 289/82/5 288/145/5
f 294/150/2 296/151/2 297/152/2 295/153/2
f 298/146/1 300/147/1 301/148/1 299/149/1
f 298/154/4 299/57/4 294/56/4 295/155/4
f 301/154/5 300/57/5 297/56/5 296/155/5
f 302/121/2 304/122/2 305/123/2 303/124/2
f 654/172/7 657/173/7 656/174/7 653/175/7
f 309/125/5 308/128/5 305/127/5 304/126/5
f 310/141/2 312/142/2 313/143/2 311/144/2
f 314/137/1 316/138/1 317/139/1 315/140/1
f 314/54/4 315/145/4 310/82/4 311/55/4
f 317/54/5 316/145/5 313/82/5 312/55/5
f 318/160/2 320/161/2 321/162/2 319/163/2
f 322/156/1 324/157/1 325/158/1 323/159/1
f 322/54/4 323/145/4 318/82/4 319/55/4
f 325/54/5 324/145/5 321/82/5 320/55/5
f 326/133/2 328/134/2 329/135/2 327/136/2
f 330/129/1 332/130/1 333/131/1 331/132/1
f 330/125/4 331/128/4 326/127/4 327/126/4
f 333/125/5 332/128/5 329/127/5 328/126/5
f 334/168/2 336/169/2 337/170/2 335/171/2
f 338/164/1 340/165/1 341/166/1 339/167/1
f 338/154/4 339/57/4 334/56/4 335/155/4
f 341/154/5 340/57/5 337/56/5 336/155/5
f 342/156/2 344/157/2 345/158/2 343/159/2
f 346/160/1 348/161/1 349/162/1 347/163/1
f 346/55/4 347/82/4 342/145/4 343/54/4
f 349/55/5 348/82/5 345/145/5 344/54/5
f 350/129/2 352/130/2 353/131/2 351/132/2
f 354/133/1 356/134/1 357/135/1 355/136/1
f 354/126/4 355/127/4 350/128/4 351/125/4
f 357/126/5 356/127/5 353/128/5 352/125/5
f 358/164/2 360/165/2 361/166/2 359/167/2
f 362/168/1 364/169/1 365/170/1 363/171/1
f 362/155/4 363/56/4 358/57/4 359/154/4
f 365/155/5 364/56/5 361/57/5 360/154/5
f 366/146/2 368/147/2 369/148/2 367/149/2
f 370/150/1 372/151/1 373/152/1 371/153/1
f 370/155/4 371/56/4 366/57/4 367/154/4
f 373/155/5 372/56/5 369/57/5 368/154/5
f 374/117/2 376/118/2 377/119/2 375/120/2
f 378/121/1 380/122/1 381/123/1 379/124/1
f 378/126/4 379/127/4 374/128/4 375/125/4
f 381/126/5 380/127/5 377/128/5 376/125/5
f 382/137/2 384/138/2 385/139/2 383/140/2
f 386/141/1 388/142/1 389/143/1 387/144/1
f 386/55/4 387/82/4 382/145/4 383/54/4
f 389/55/5 388/82/5 385/145/5 384/54/5
f 408/36/6 410/176/6 393/177/6 391/178/6
f 391/37/1 393/179/1 394/177/1 392/178/1
f 391/178/4 392/177/4 70/176/4 408/36/4
f 394/178/5 393/177/5 410/176/5 390/36/5
f 395/61/2 397/180/2 406/35/2 396/181/2
f 400/182/3 401/38/3 397/180/3 395/61/3
f 398/182/4 400/38/4 395/180/4 396/61/4
f 401/182/5 399/38/5 406/180/5 397/61/5
f 403/182/3 404/38/3 401/183/3 400/184/3
f 392/37/1 394/178/1 404/184/1 403/182/1
f 392/37/4 403/182/4 400/184/4 68/178/4
f 404/182/5 394/37/5 402/178/5 401/184/5
f 405/185/6 407/186/6 410/176/6 408/36/6
f 396/180/2 406/35/2 407/176/2 405/186/2
f 408/186/4 409/180/4 396/35/4 405/176/4
f 411/180/5 410/186/5 407/176/5 406/35/5
f 413/187/6 415/188/6 418/189/6 416/62/6
f 412/190/2 414/191/2 415/192/2 413/193/2
f 417/187/3 419/188/3 414/189/3 412/62/3
f 416/190/1 418/191/1 419/192/1 417/193/1
f 416/194/4 417/195/4 412/193/4 413/196/4
f 419/195/5 418/194/5 415/196/5 414/193/5
f 69/41/6 421/42/6 31/33/6 422/34/6
f 423/31/3 424/32/3 420/39/3 77/40/3
f 422/31/1 31/32/1 424/33/1 423/34/1
f 422/45/4 423/44/4 77/43/4 69/28/4
f 630/197/6 627/198/6 430/199/6 428/200/6
f 425/2/2 40/201/2 427/202/2 426/203/2
f 428/203/1 430/202/1 421/201/1 429/2/1
f 632/204/4 633/174/4 638/205/4 637/206/4
f 434/207/1 624/208/1 431/103/1 442/209/1
f 425/2/2 426/203/2 621/1/2
f 620/3/2 425/2/2 621/1/2
f 657/173/1 654/172/1 631/172/1 647/173/1
f 432/207/2 437/209/2 433/103/2 619/208/2
f 620/3/2 619/208/2 433/103/2 425/2/2
f 428/203/1 429/2/1 622/1/1
f 610/9/5 609/10/5 606/11/5 605/12/5
f 434/210/7 439/211/7 647/173/7 631/172/7
f 439/212/1 441/213/1 442/209/1 440/214/1
f 444/215/6 446/216/6 449/217/6 447/189/6
f 443/218/2 445/219/2 446/217/2 444/189/2
f 448/218/3 450/219/3 445/220/3 443/221/3
f 447/222/4 448/223/4 443/218/4 444/189/4
f 450/217/5 449/219/5 446/224/5 445/225/5
f 452/218/6 454/219/6 457/220/6 455/221/6
f 451/218/2 453/219/2 454/217/2 452/189/2
f 456/215/3 458/216/3 453/217/3 451/189/3
f 455/218/1 457/219/1 458/217/1 456/189/1
f 455/223/4 456/222/4 451/189/4 452/218/4
f 458/219/5 457/217/5 454/225/5 453/224/5
f 460/226/6 462/227/6 465/228/6 463/229/6
f 459/226/2 461/227/2 462/228/2 460/229/2
f 464/226/3 466/227/3 461/228/3 459/229/3
f 463/226/1 465/227/1 466/228/1 464/229/1
f 463/127/4 464/230/4 459/231/4 460/155/4
f 466/127/5 465/230/5 462/231/5 461/155/5
f 468/226/6 469/232/6 471/233/6 470/234/6
f 467/235/2 487/227/2 469/226/2 468/236/2
f 470/234/1 471/236/1 472/235/1 516/237/1
f 470/234/4 516/237/4 467/227/4 468/226/4
f 472/237/5 471/234/5 469/226/5 487/227/5
f 474/238/6 476/239/6 479/236/6 477/240/6
f 473/126/2 475/226/2 476/239/2 474/238/2
f 478/240/3 480/236/3 475/239/3 473/238/3
f 477/240/1 479/236/1 480/226/1 478/126/1
f 477/240/4 478/236/4 473/239/4 474/238/4
f 480/240/5 479/236/5 476/239/5 475/238/5
f 482/226/2 484/232/2 486/233/2 485/234/2
f 481/235/3 483/227/3 484/226/3 482/236/3
f 485/234/6 486/236/6 487/235/6 467/237/6
f 485/234/4 467/237/4 481/227/4 482/226/4
f 487/237/5 486/234/5 484/226/5 483/227/5
f 489/238/1 491/239/1 494/236/1 492/240/1
f 488/126/6 490/226/6 491/239/6 489/238/6
f 493/240/2 495/236/2 490/239/2 488/238/2
f 492/240/3 494/236/3 495/226/3 493/126/3
f 492/240/4 493/236/4 488/239/4 489/238/4
f 495/240/5 494/236/5 491/239/5 490/238/5
f 497/238/3 499/239/3 502/236/3 500/240/3
f 496/126/1 498/226/1 499/239/1 497/238/1
f 501/240/6 503/236/6 498/239/6 496/238/6
f 500/240/2 502/236/2 503/226/2 501/126/2
f 500/240/4 501/236/4 496/239/4 497/238/4
f 503/240/5 502/236/5 499/239/5 498/238/5
f 504/226/3 505/232/3 507/233/3 506/234/3
f 520/235/1 522/227/1 505/226/1 504/236/1
f 506/234/2 507/236/2 483/235/2 481/237/2
f 506/234/4 481/237/4 520/227/4 504/226/4
f 483/237/5 507/234/5 505/226/5 522/227/5
f 509/238/1 511/239/1 514/236/1 512/240/1
f 508/126/6 510/226/6 511/239/6 509/238/6
f 513/240/2 515/236/2 510/239/2 508/238/2
f 512/240/3 514/236/3 515/226/3 513/126/3
f 512/240/4 513/236/4 508/239/4 509/238/4
f 515/240/5 514/236/5 511/239/5 510/238/5
f 517/226/1 518/232/1 521/233/1 519/234/1
f 516/235/6 472/227/6 518/226/6 517/236/6
f 519/234/3 521/236/3 522/235/3 520/237/3
f 519/234/4 520/237/4 516/227/4 517/226/4
f 522/237/5 521/234/5 518/226/5 472/227/5
f 529/241/3 537/242/3 528/243/3 542/244/3
f 524/244/2 526/243/2 527/245/2 525/246/2
f 542/244/3 528/243/3 526/245/3 524/246/3
f 543/244/4 542/247/4 524/248/4 525/246/4
f 528/249/5 523/243/5 527/245/5 526/250/5
f 532/251/3 534/252/3 537/242/3 529/241/3
f 531/251/1 533/252/1 534/242/1 532/241/1
f 531/251/4 532/253/4 529/254/4 546/241/4
f 534/255/5 533/252/5 530/242/5 537/256/5
f 528/257/2 535/258/2 536/259/2 523/243/2
f 537/242/3 539/260/3 535/259/3 528/243/3
f 530/242/1 538/260/1 539/261/1 537/262/1
f 539/242/5 538/260/5 536/259/5 535/243/5
f 540/263/2 542/264/2 543/244/2 541/265/2
f 545/266/3 529/241/3 542/244/3 540/265/3
f 544/266/1 546/241/1 529/267/1 545/268/1
f 544/266/4 545/241/4 540/244/4 541/265/4
f 548/269/6 550/270/6 553/271/6 551/6/6
f 547/269/2 549/270/2 550/271/2 548/6/2
f 552/269/3 554/270/3 549/271/3 547/6/3
f 551/269/1 553/270/1 554/271/1 552/6/1
f 556/269/6 558/270/6 561/271/6 559/6/6
f 555/269/2 557/270/2 558/271/2 556/6/2
f 560/269/3 562/270/3 557/271/3 555/6/3
f 559/269/1 561/270/1 562/271/1 560/6/1
f 564/272/6 566/269/6 569/6/6 567/9/6
f 563/272/2 565/269/2 566/6/2 564/9/2
f 568/272/3 570/269/3 565/6/3 563/9/3
f 567/272/1 569/269/1 570/6/1 568/9/1
f 572/272/6 574/269/6 577/6/6 575/9/6
f 571/272/2 573/269/2 574/6/2 572/9/2
f 576/272/3 578/269/3 573/6/3 571/9/3
f 575/272/1 577/269/1 578/6/1 576/9/1
f 580/273/6 582/272/6 585/9/6 583/5/6
f 579/273/2 581/272/2 582/9/2 580/5/2
f 584/273/3 586/272/3 581/9/3 579/5/3
f 583/273/1 585/272/1 586/9/1 584/5/1
f 583/274/4 584/190/4 579/275/4 580/276/4
f 588/273/6 590/272/6 593/9/6 591/5/6
f 587/273/2 589/272/2 590/9/2 588/5/2
f 592/273/3 594/272/3 589/9/3 587/5/3
f 591/273/1 593/272/1 594/9/1 592/5/1
f 591/274/4 592/190/4 587/275/4 588/276/4
f 596/277/6 598/278/6 601/279/6 599/280/6
f 595/277/2 597/278/2 598/279/2 596/280/2
f 600/277/3 602/278/3 597/279/3 595/280/3
f 599/277/1 601/278/1 602/279/1 600/280/1
f 599/9/4 600/10/4 595/11/4 596/12/4
f 602/9/5 601/10/5 598/11/5 597/12/5
f 604/5/6 606/6/6 609/7/6 607/8/6
f 603/5/2 605/6/2 606/7/2 604/8/2
f 608/5/3 610/6/3 605/7/3 603/8/3
f 607/5/1 609/6/1 610/7/1 608/8/1
f 607/9/4 608/10/4 603/11/4 604/12/4
f 653/175/7 656/174/7 655/204/7 652/281/7
f 435/214/2 437/209/2 438/213/2 436/212/2
f 612/277/6 614/278/6 617/279/6 615/280/6
f 611/277/2 613/278/2 614/279/2 612/280/2
f 616/277/3 618/278/3 613/279/3 611/280/3
f 615/277/1 617/278/1 618/279/1 616/280/1
f 615/9/4 616/10/4 611/11/4 612/12/4
f 428/200/8 622/282/8 651/283/8 630/197/8
f 620/284/8 648/285/8 643/286/8 619/287/8
f 629/288/8 630/197/8 651/283/8 645/289/8
f 639/290/4 638/205/4 633/174/4 647/173/4
f 432/291/7 646/281/7 632/204/7 436/292/7
f 619/287/8 643/286/8 646/281/8 432/291/8
f 621/293/8 650/294/8 648/285/8 620/284/8
f 665/289/9 645/289/9 651/283/9 666/283/9
f 629/288/8 645/289/8 650/294/8 628/295/8
f 426/296/8 628/295/8 650/294/8 621/293/8
f 618/9/5 617/10/5 614/11/5 613/12/5
f 436/292/4 632/204/4 637/206/4 435/297/4
f 439/211/4 440/298/4 639/290/4 647/173/4
f 622/282/8 623/299/8 649/300/8 651/283/8
f 306/125/4 307/128/4 302/127/4 303/126/4
f 2/5/6 4/6/6 7/7/6 5/8/6
f 623/299/8 624/301/8 644/302/8 649/300/8
f 426/296/6 427/303/6 625/304/6 628/295/6
f 628/295/6 625/304/6 626/305/6 629/288/6
f 661/285/2 658/286/2 643/286/2 648/285/2
f 665/289/9 664/294/9 650/294/9 645/289/9
f 629/288/6 626/305/6 627/198/6 630/197/6
f 655/204/2 632/204/2 646/281/2 652/281/2
f 431/103/1 624/208/1 623/3/1 429/2/1
f 663/300/1 649/300/1 644/302/1 660/302/1
f 657/173/10 647/173/10 633/174/10 656/174/10
f 666/283/1 651/283/1 649/300/1 663/300/1
f 656/174/10 633/174/10 632/204/10 655/204/10
f 666/283/8 663/300/8 662/306/8 665/289/8
f 665/289/8 662/306/8 661/285/8 664/294/8
f 663/300/8 660/302/8 659/307/8 662/306/8
f 662/306/8 659/307/8 658/286/8 661/285/8
f 660/302/8 654/172/8 653/175/8 659/307/8
f 659/307/8 653/175/8 652/281/8 658/286/8
f 644/302/8 624/301/8 434/210/8 631/172/8
f 658/286/2 652/281/2 646/281/2 643/286/2
f 660/302/1 644/302/1 631/172/1 654/172/1
f 664/294/2 661/285/2 648/285/2 650/294/2
f 306/117/1 308/118/1 309/119/1 307/120/1
f 625/308/5 40/309/5 626/310/5
f 72/311/3 640/312/3 641/313/3
f 16/187/5 15/314/5 12/315/5 11/316/5
f 24/187/5 23/314/5 20/315/5 19/316/5
f 25/187/2 421/317/2 27/318/2 26/312/2
f 29/187/3 31/317/3 421/319/3 25/320/3
f 31/187/5 30/321/5 27/322/5 421/320/5
f 37/187/3 40/317/3 34/319/3 32/320/3
f 36/187/1 38/317/1 40/318/1 37/312/1
f 40/187/5 38/321/5 35/322/5 34/320/5
f 72/187/6 40/323/6 421/324/6 69/325/6
f 74/187/2 39/323/2 40/326/2 72/309/2
f 69/187/1 421/323/1 420/326/1 77/309/1
f 420/187/5 421/188/5 40/327/5 39/325/5
f 39/187/5 40/188/5 34/327/5 43/325/5
f 44/187/2 46/328/2 47/329/2 45/330/2
f 48/187/1 50/328/1 149/329/1 49/330/1
f 149/187/5 50/331/5 47/332/5 46/309/5
f 51/187/2 53/328/2 158/329/2 52/330/2
f 54/187/1 162/328/1 161/329/1 55/330/1
f 161/187/5 162/331/5 158/333/5 53/334/5
f 57/187/6 178/328/6 182/329/6 59/330/6
f 60/187/3 175/328/3 58/329/3 56/330/3
f 175/187/5 182/335/5 178/336/5 58/330/5
f 62/187/6 166/328/6 168/329/6 64/330/6
f 65/187/3 66/328/3 63/329/3 61/330/3
f 66/187/5 168/335/5 166/336/5 63/330/5
f 67/187/2 179/337/2 152/338/2 189/330/2
f 194/187/3 181/337/3 179/338/3 67/330/3
f 181/187/5 69/331/5 152/339/5 179/330/5
f 186/187/3 143/337/3 71/338/3 190/330/3
f 187/187/1 144/337/1 143/338/1 186/330/1
f 143/187/5 144/331/5 72/339/5 71/330/5
f 73/187/6 170/340/6 155/341/6 183/330/6
f 183/187/1 155/340/1 154/341/1 75/330/1
f 154/187/5 155/331/5 170/339/5 74/330/5
f 76/187/6 163/340/6 176/341/6 195/330/6
f 184/187/2 164/340/2 163/341/2 76/330/2
f 77/187/5 176/331/5 163/339/5 164/330/5
f 82/187/4 83/331/4 78/339/4 79/330/4
f 85/187/5 84/331/5 81/339/5 80/330/5
f 90/187/4 91/331/4 86/339/4 87/330/4
f 93/187/5 92/331/5 89/339/5 88/330/5
f 98/187/4 99/331/4 94/339/4 95/330/4
f 101/187/5 100/331/5 97/339/5 96/330/5
f 106/187/4 107/331/4 102/339/4 103/330/4
f 109/187/5 108/331/5 105/339/5 104/330/5
f 114/187/4 115/331/4 110/339/4 111/330/4
f 117/187/5 116/331/5 113/339/5 112/330/5
f 122/187/4 123/331/4 118/339/4 119/330/4
f 125/187/5 124/331/5 121/339/5 120/330/5
f 130/187/4 131/331/4 126/339/4 127/330/4
f 133/187/5 132/331/5 129/339/5 128/330/5
f 138/187/4 139/331/4 134/339/4 135/330/4
f 141/187/5 140/331/5 137/339/5 136/330/5
f 142/187/2 143/342/2 144/343/2 188/330/2
f 145/187/4 146/331/4 142/344/4 188/345/4
f 46/187/5 47/331/5 144/344/5 143/345/5
f 150/187/1 152/346/1 179/347/1 151/330/1
f 150/187/4 151/331/4 147/344/4 148/345/4
f 179/187/5 152/331/5 50/344/5 149/345/5
f 153/187/2 154/272/2 155/348/2 172/330/2
f 156/187/4 157/331/4 153/344/4 172/345/4
f 53/187/5 158/331/5 155/344/5 154/345/5
f 193/187/1 163/272/1 164/348/1 185/330/1
f 193/187/4 185/331/4 159/344/4 160/345/4
f 164/187/5 163/331/5 162/344/5 161/345/5
f 192/187/6 71/272/6 143/348/6 142/330/6
f 142/187/4 167/317/4 165/349/4 192/330/4
f 168/187/5 143/317/5 71/349/5 166/330/5
f 172/187/3 155/272/3 170/348/3 191/330/3
f 171/187/4 172/317/4 191/349/4 169/330/4
f 155/187/5 66/317/5 63/349/5 170/330/5
f 197/187/3 176/272/3 163/348/3 193/330/3
f 174/187/4 197/317/4 193/349/4 173/330/4
f 176/187/5 175/317/5 58/349/5 163/330/5
f 151/187/6 179/272/6 181/348/6 196/330/6
f 196/187/4 180/317/4 177/349/4 151/330/4
f 182/187/5 181/317/5 179/349/5 178/330/5
f 75/187/2 153/314/2 172/350/2 183/330/2
f 76/187/1 193/314/1 185/350/1 184/330/1
f 186/187/2 142/314/2 188/350/2 187/330/2
f 189/187/1 150/314/1 151/350/1 67/330/1
f 190/187/6 192/314/6 142/350/6 186/330/6
f 183/187/3 172/314/3 191/350/3 73/330/3
f 67/187/6 151/314/6 196/350/6 194/330/6
f 195/187/3 197/314/3 193/350/3 76/330/3
f 198/187/2 200/351/2 201/352/2 199/330/2
f 202/187/1 204/351/1 205/352/1 203/330/1
f 206/187/2 208/351/2 209/352/2 207/330/2
f 210/187/1 212/351/1 213/352/1 211/330/1
f 214/187/2 216/351/2 217/352/2 215/330/2
f 218/187/1 220/351/1 221/352/1 219/330/1
f 222/187/2 224/351/2 225/352/2 223/330/2
f 226/187/1 228/351/1 229/352/1 227/330/1
f 230/187/2 232/351/2 233/352/2 231/330/2
f 234/187/1 236/351/1 237/352/1 235/330/1
f 238/187/2 240/351/2 241/352/2 239/330/2
f 242/187/1 244/351/1 245/352/1 243/330/1
f 246/187/2 248/351/2 249/352/2 247/330/2
f 250/187/1 252/351/1 253/352/1 251/330/1
f 254/187/2 256/351/2 257/352/2 255/330/2
f 258/187/1 260/351/1 261/352/1 259/330/1
f 262/187/2 264/351/2 265/352/2 263/330/2
f 266/187/1 268/351/1 269/352/1 267/330/1
f 270/187/2 272/351/2 273/352/2 271/330/2
f 274/187/1 276/351/1 277/352/1 275/330/1
f 278/187/2 280/351/2 281/352/2 279/330/2
f 282/187/1 284/351/1 285/352/1 283/330/1
f 286/187/2 288/351/2 289/352/2 287/330/2
f 290/187/1 292/351/1 293/352/1 291/330/1
f 295/187/6 297/351/6 300/352/6 298/330/6
f 299/187/3 301/351/3 296/352/3 294/330/3
f 303/187/6 305/351/6 308/352/6 306/330/6
f 307/187/3 309/351/3 304/352/3 302/330/3
f 440/187/3 442/317/3 636/353/3 639/354/3
f 311/187/6 313/351/6 316/352/6 314/330/6
f 315/187/3 317/351/3 312/352/3 310/330/3
f 319/187/6 321/351/6 324/352/6 322/330/6
f 323/187/3 325/351/3 320/352/3 318/330/3
f 327/187/6 329/351/6 332/352/6 330/330/6
f 331/187/3 333/351/3 328/352/3 326/330/3
f 335/187/6 337/351/6 340/352/6 338/330/6
f 339/187/3 341/351/3 336/352/3 334/330/3
f 343/187/6 345/351/6 348/352/6 346/330/6
f 347/187/3 349/351/3 344/352/3 342/330/3
f 351/187/6 353/351/6 356/352/6 354/330/6
f 355/187/3 357/351/3 352/352/3 350/330/3
f 359/187/6 361/351/6 364/352/6 362/330/6
f 363/187/3 365/351/3 360/352/3 358/330/3
f 367/187/6 369/351/6 372/352/6 370/330/6
f 371/187/3 373/351/3 368/352/3 366/330/3
f 375/187/6 377/351/6 380/352/6 378/330/6
f 379/187/3 381/351/3 376/352/3 374/330/3
f 383/187/6 385/351/6 388/352/6 386/330/6
f 387/187/3 389/351/3 384/352/3 382/330/3
f 70/187/2 390/317/2 410/355/2 408/345/2
f 392/187/3 394/317/3 390/356/3 70/357/3
f 396/187/6 406/317/6 399/356/6 398/357/6
f 398/187/1 399/317/1 401/355/1 400/345/1
f 68/187/6 402/317/6 394/355/6 392/345/6
f 400/187/2 401/317/2 402/356/2 68/357/2
f 409/187/3 411/317/3 406/355/3 396/345/3
f 408/187/1 410/317/1 411/356/1 409/357/1
f 424/187/5 31/188/5 421/327/5 420/325/5
f 429/187/3 421/331/3 40/332/3 425/309/3
f 40/309/5 421/187/5 627/358/5 626/310/5
f 421/187/5 430/342/5 627/358/5
f 427/359/5 40/309/5 625/308/5
f 431/187/3 69/314/3 642/354/3
f 69/314/3 72/311/3 641/313/3
f 642/354/3 69/314/3 641/313/3
f 72/311/3 433/309/3 640/312/3
f 637/312/3 634/318/3 437/360/3 435/309/3
f 447/187/1 449/328/1 450/361/1 448/362/1
f 516/187/3 472/317/3 487/349/3 467/330/3
f 467/187/1 487/317/1 483/349/1 481/330/1
f 481/187/6 483/317/6 522/349/6 520/330/6
f 520/187/2 522/317/2 472/349/2 516/330/2
f 543/187/6 523/321/6 530/322/6 546/320/6
f 542/187/2 528/321/2 523/363/2 543/345/2
f 546/187/1 530/321/1 537/363/1 529/345/1
f 546/187/4 529/317/4 542/319/4 543/320/4
f 537/187/5 530/317/5 523/319/5 528/320/5
f 525/187/6 527/321/6 523/363/6 543/345/6
f 546/187/6 530/321/6 533/363/6 531/345/6
f 523/187/6 536/317/6 538/319/6 530/320/6
f 541/187/6 543/317/6 546/319/6 544/320/6
f 551/187/4 552/351/4 547/364/4 548/354/4
f 554/187/5 553/351/5 550/364/5 549/354/5
f 559/187/4 560/351/4 555/364/4 556/354/4
f 562/187/5 561/351/5 558/364/5 557/354/5
f 567/187/4 568/351/4 563/364/4 564/354/4
f 570/187/5 569/351/5 566/364/5 565/354/5
f 575/187/4 576/351/4 571/364/4 572/354/4
f 578/187/5 577/351/5 574/364/5 573/354/5
f 586/187/5 585/351/5 582/364/5 581/354/5
f 594/187/5 593/351/5 590/364/5 589/354/5
f 634/312/3 640/318/3 433/360/3 437/309/3
f 639/354/3 636/353/3 635/365/3 638/313/3
f 638/313/3 635/365/3 634/318/3 637/312/3
f 442/187/3 431/317/3 642/353/3 636/354/3
f 636/354/3 642/353/3 641/365/3 635/313/3
f 635/313/3 641/365/3 640/318/3 634/312/3
