# Blender v2.90.0 OBJ File: 'immersive energy envirosuit.blend'
# www.blender.org
mtllib envirosuit_leg_left_WIP.mtl
o Leg_Left_Cube.019
v 0.000000 -0.007812 0.257812
v 0.000000 1.507812 0.257812
v 0.000000 -0.007812 -0.257812
v 0.000000 1.507812 -0.257812
v 0.507812 -0.007812 0.257812
v 0.507812 1.507812 0.257812
v 0.507812 -0.007812 -0.257812
v 0.507812 1.507812 -0.257812
v 0.500000 0.125000 0.156250
v 0.500000 1.375000 0.156250
v 0.500000 0.125000 -0.156250
v 0.500000 1.375000 -0.156250
v 0.625000 0.125000 0.156250
v 0.625000 1.375000 0.156250
v 0.625000 0.125000 -0.156250
v 0.625000 1.375000 -0.156250
v 0.093750 0.125000 0.375000
v 0.093750 1.375000 0.375000
v 0.093750 0.125000 0.250000
v 0.093750 1.375000 0.250000
v 0.406250 0.125000 0.375000
v 0.406250 1.375000 0.375000
v 0.406250 0.125000 0.250000
v 0.406250 1.375000 0.250000
v 0.093750 0.125000 -0.250000
v 0.093750 0.750000 -0.250000
v 0.093750 0.125000 -0.375000
v 0.093750 0.750000 -0.375000
v 0.406250 0.125000 -0.250000
v 0.406250 0.750000 -0.250000
v 0.406250 0.125000 -0.375000
v 0.406250 0.750000 -0.375000
v 0.093750 0.812500 -0.250000
v 0.093750 1.437500 -0.250000
v 0.093750 0.812500 -0.375000
v 0.093750 1.437500 -0.375000
v 0.406250 0.812500 -0.250000
v 0.406250 1.437500 -0.250000
v 0.406250 0.812500 -0.375000
v 0.406250 1.437500 -0.375000
vt 0.375000 0.000000
vt 0.625000 0.000000
vt 0.625000 0.250000
vt 0.375000 0.250000
vt 0.406250 0.546875
vt 0.531250 0.546875
vt 0.531250 0.609375
vt 0.406250 0.609375
vt 0.406250 0.546875
vt 0.531250 0.546875
vt 0.531250 0.609375
vt 0.406250 0.609375
vt 0.406250 0.546875
vt 0.531250 0.546875
vt 0.531250 0.609375
vt 0.406250 0.609375
vt 0.507812 0.546875
vt 0.531250 0.546875
vt 0.531250 0.609375
vt 0.507812 0.609375
vt 0.625000 0.500000
vt 0.875000 0.500000
vt 0.875000 0.750000
vt 0.625000 0.750000
vt 0.375000 0.000000
vt 0.625000 0.000000
vt 0.625000 0.250000
vt 0.375000 0.250000
vt 0.593750 0.859375
vt 0.593750 0.609375
vt 0.605469 0.609375
vt 0.605469 0.859375
vt 0.406250 0.546875
vt 0.531250 0.546875
vt 0.531250 0.609375
vt 0.406250 0.609375
vt 0.593750 0.859375
vt 0.593750 0.609375
vt 0.605469 0.609375
vt 0.605469 0.859375
vt 0.539062 0.554688
vt 0.585938 0.554688
vt 0.585938 0.601562
vt 0.539062 0.601562
vt 0.539062 0.554688
vt 0.585938 0.554688
vt 0.585938 0.601562
vt 0.539062 0.601562
vt 0.593750 0.859375
vt 0.593750 0.609375
vt 0.605469 0.609375
vt 0.605469 0.859375
vt 0.375000 0.250000
vt 0.625000 0.250000
vt 0.625000 0.500000
vt 0.375000 0.500000
vt 0.593750 0.859375
vt 0.593750 0.609375
vt 0.605469 0.609375
vt 0.605469 0.859375
vt 0.406250 0.546875
vt 0.531250 0.546875
vt 0.531250 0.609375
vt 0.406250 0.609375
vt 0.539062 0.554688
vt 0.585938 0.554688
vt 0.585938 0.601562
vt 0.539062 0.601562
vt 0.539062 0.554688
vt 0.585938 0.554688
vt 0.585938 0.601562
vt 0.539062 0.601562
vt 0.593750 0.859375
vt 0.593750 0.609375
vt 0.605469 0.609375
vt 0.605469 0.859375
vt 0.406250 0.546875
vt 0.531250 0.546875
vt 0.531250 0.609375
vt 0.406250 0.609375
vt 0.593750 0.859375
vt 0.593750 0.609375
vt 0.605469 0.609375
vt 0.605469 0.859375
vt 0.375000 0.750000
vt 0.625000 0.750000
vt 0.625000 1.000000
vt 0.375000 1.000000
vt 0.539062 0.554688
vt 0.585938 0.554688
vt 0.585938 0.601562
vt 0.539062 0.601562
vt 0.539062 0.554688
vt 0.585938 0.554688
vt 0.585938 0.601562
vt 0.539062 0.601562
vt 0.593750 0.859375
vt 0.593750 0.609375
vt 0.605469 0.609375
vt 0.605469 0.859375
vt 0.406250 0.546875
vt 0.531250 0.546875
vt 0.531250 0.609375
vt 0.406250 0.609375
vt 0.593750 0.859375
vt 0.593750 0.609375
vt 0.605469 0.609375
vt 0.605469 0.859375
vt 0.375000 0.750000
vt 0.625000 0.750000
vt 0.625000 1.000000
vt 0.375000 1.000000
vt 0.539062 0.554688
vt 0.585938 0.554688
vt 0.585938 0.601562
vt 0.539062 0.601562
vt 0.539062 0.554688
vt 0.585938 0.554688
vt 0.585938 0.601562
vt 0.539062 0.601562
vn -1.0000 0.0000 0.0000
vn 0.0000 0.0000 -1.0000
vn 1.0000 0.0000 0.0000
vn 0.0000 0.0000 1.0000
vn 0.0000 -1.0000 0.0000
vn 0.0000 1.0000 0.0000
usemtl Steel
s off
f 1/1/1 2/2/1 4/3/1 3/4/1
f 3/5/2 4/6/2 8/7/2 7/8/2
f 7/9/3 8/10/3 6/11/3 5/12/3
f 5/13/4 6/14/4 2/15/4 1/16/4
f 3/17/5 7/18/5 5/19/5 1/20/5
f 8/21/6 4/22/6 2/23/6 6/24/6
f 9/25/1 10/26/1 12/27/1 11/28/1
f 11/29/2 12/30/2 16/31/2 15/32/2
f 15/33/3 16/34/3 14/35/3 13/36/3
f 13/37/4 14/38/4 10/39/4 9/40/4
f 11/41/5 15/42/5 13/43/5 9/44/5
f 16/45/6 12/46/6 10/47/6 14/48/6
f 17/49/1 18/50/1 20/51/1 19/52/1
f 19/53/2 20/54/2 24/55/2 23/56/2
f 23/57/3 24/58/3 22/59/3 21/60/3
f 21/61/4 22/62/4 18/63/4 17/64/4
f 19/65/5 23/66/5 21/67/5 17/68/5
f 24/69/6 20/70/6 18/71/6 22/72/6
f 25/73/1 26/74/1 28/75/1 27/76/1
f 27/77/2 28/78/2 32/79/2 31/80/2
f 31/81/3 32/82/3 30/83/3 29/84/3
f 29/85/4 30/86/4 26/87/4 25/88/4
f 27/89/5 31/90/5 29/91/5 25/92/5
f 32/93/6 28/94/6 26/95/6 30/96/6
f 33/97/1 34/98/1 36/99/1 35/100/1
f 35/101/2 36/102/2 40/103/2 39/104/2
f 39/105/3 40/106/3 38/107/3 37/108/3
f 37/109/4 38/110/4 34/111/4 33/112/4
f 35/113/5 39/114/5 37/115/5 33/116/5
f 40/117/6 36/118/6 34/119/6 38/120/6
