# Blender v2.90.0 OBJ File: 'immersive energy envirosuit.blend'
# www.blender.org
mtllib envirosuit_boot_left_WIP.mtl
o Left_Boot_Cube.005
v 0.000000 0.046875 0.437500
v 0.000000 0.500000 0.437500
v 0.000000 0.046875 -0.437500
v 0.000000 0.500000 -0.437500
v 0.593750 0.046875 0.437500
v 0.593750 0.500000 0.437500
v 0.593750 0.046875 -0.437500
v 0.593750 0.500000 -0.437500
v 0.062500 0.050781 0.625000
v 0.062500 0.312500 0.625000
v 0.062500 0.050781 0.375000
v 0.062500 0.312500 0.375000
v 0.531250 0.050781 0.625000
v 0.531250 0.312500 0.625000
v 0.531250 0.050781 0.375000
v 0.531250 0.312500 0.375000
v 0.375000 0.050781 0.250000
v 0.375000 0.312500 0.250000
v 0.375000 0.050781 -0.250000
v 0.375000 0.312500 -0.250000
v 0.656250 0.050781 0.250000
v 0.656250 0.312500 0.250000
v 0.656250 0.050781 -0.250000
v 0.656250 0.312500 -0.250000
v 0.000000 -0.011719 0.375000
v 0.000000 0.062500 0.375000
v 0.000000 -0.011719 -0.312500
v 0.000000 0.062500 -0.312500
v 0.562500 -0.011719 0.375000
v 0.562500 0.062500 0.375000
v 0.562500 -0.011719 -0.312500
v 0.562500 0.062500 -0.312500
v 0.093750 -0.011719 0.593750
v 0.093750 0.066406 0.593750
v 0.093750 -0.011719 0.406250
v 0.093750 0.066406 0.406250
v 0.500000 -0.011719 0.593750
v 0.500000 0.066406 0.593750
v 0.500000 -0.011719 0.406250
v 0.500000 0.066406 0.406250
vt 0.078125 0.609375
vt 0.140625 0.609375
vt 0.140625 0.734375
vt 0.078125 0.734375
vt 0.078125 0.609375
vt 0.140625 0.609375
vt 0.140625 0.734375
vt 0.078125 0.734375
vt 0.078125 0.609375
vt 0.140625 0.609375
vt 0.140625 0.734375
vt 0.078125 0.734375
vt 0.078125 0.609375
vt 0.140625 0.609375
vt 0.140625 0.734375
vt 0.078125 0.734375
vt 0.601562 0.726562
vt 0.648438 0.726562
vt 0.648438 0.773438
vt 0.601562 0.773438
vt 0.078125 0.609375
vt 0.078125 0.734375
vt 0.078125 0.609375
vt 0.140625 0.609375
vt 0.140625 0.734375
vt 0.078125 0.734375
vt 0.375000 0.250000
vt 0.625000 0.250000
vt 0.625000 0.500000
vt 0.375000 0.500000
vt 0.078125 0.609375
vt 0.140625 0.609375
vt 0.140625 0.734375
vt 0.078125 0.734375
vt 0.078125 0.609375
vt 0.140625 0.609375
vt 0.140625 0.734375
vt 0.078125 0.734375
vt 0.601562 0.726562
vt 0.648438 0.726562
vt 0.648438 0.773438
vt 0.601562 0.773438
vt 0.078125 0.609375
vt 0.140625 0.609375
vt 0.078125 0.734375
vt 0.375000 0.000000
vt 0.625000 0.000000
vt 0.625000 0.250000
vt 0.375000 0.250000
vt 0.078125 0.609375
vt 0.140625 0.609375
vt 0.140625 0.734375
vt 0.078125 0.734375
vt 0.078125 0.609375
vt 0.140625 0.609375
vt 0.140625 0.734375
vt 0.078125 0.734375
vt 0.078125 0.609375
vt 0.140625 0.609375
vt 0.140625 0.734375
vt 0.078125 0.734375
vt 0.601562 0.726562
vt 0.648438 0.726562
vt 0.648438 0.773438
vt 0.601562 0.773438
vt 0.078125 0.609375
vt 0.078125 0.734375
vt 0.871094 0.156250
vt 0.871094 0.078125
vt 0.917969 0.078125
vt 0.917969 0.156250
vt 0.914062 0.148438
vt 0.890625 0.148438
vt 0.890625 0.070312
vt 0.914062 0.070312
vt 0.871094 0.156250
vt 0.871094 0.078125
vt 0.917969 0.078125
vt 0.917969 0.156250
vt 0.914062 0.148438
vt 0.890625 0.148438
vt 0.890625 0.070312
vt 0.914062 0.070312
vt 0.867188 0.164062
vt 0.867188 0.070312
vt 0.921875 0.070312
vt 0.921875 0.164062
vt 0.625000 0.500000
vt 0.875000 0.500000
vt 0.875000 0.750000
vt 0.625000 0.750000
vt 0.871094 0.156250
vt 0.871094 0.078125
vt 0.917969 0.078125
vt 0.917969 0.156250
vt 0.914062 0.148438
vt 0.890625 0.148438
vt 0.890625 0.070312
vt 0.914062 0.070312
vt 0.871094 0.156250
vt 0.871094 0.078125
vt 0.917969 0.078125
vt 0.917969 0.156250
vt 0.914062 0.148438
vt 0.890625 0.148438
vt 0.890625 0.070312
vt 0.914062 0.070312
vt 0.867188 0.164062
vt 0.867188 0.070312
vt 0.921875 0.070312
vt 0.921875 0.164062
vt 0.625000 0.500000
vt 0.875000 0.500000
vt 0.875000 0.750000
vt 0.625000 0.750000
vn -1.0000 0.0000 0.0000
vn 0.0000 0.0000 -1.0000
vn 1.0000 0.0000 0.0000
vn 0.0000 0.0000 1.0000
vn 0.0000 -1.0000 0.0000
vn 0.0000 1.0000 0.0000
usemtl Steel
s off
f 1/1/1 2/2/1 4/3/1 3/4/1
f 3/5/2 4/6/2 8/7/2 7/8/2
f 7/9/3 8/10/3 6/11/3 5/12/3
f 5/13/4 6/14/4 2/15/4 1/16/4
f 3/17/5 7/18/5 5/19/5 1/20/5
f 8/21/6 4/6/6 2/15/6 6/22/6
f 9/23/1 10/24/1 12/25/1 11/26/1
f 11/27/2 12/28/2 16/29/2 15/30/2
f 15/31/3 16/32/3 14/33/3 13/34/3
f 13/35/4 14/36/4 10/37/4 9/38/4
f 11/39/5 15/40/5 13/41/5 9/42/5
f 16/43/6 12/44/6 10/37/6 14/45/6
f 17/46/1 18/47/1 20/48/1 19/49/1
f 19/50/2 20/51/2 24/52/2 23/53/2
f 23/54/3 24/55/3 22/56/3 21/57/3
f 21/58/4 22/59/4 18/60/4 17/61/4
f 19/62/5 23/63/5 21/64/5 17/65/5
f 24/66/6 20/51/6 18/60/6 22/67/6
f 25/68/1 26/69/1 28/70/1 27/71/1
f 27/72/2 28/73/2 32/74/2 31/75/2
f 31/76/3 32/77/3 30/78/3 29/79/3
f 29/80/4 30/81/4 26/82/4 25/83/4
f 27/84/5 31/85/5 29/86/5 25/87/5
f 32/88/6 28/89/6 26/90/6 30/91/6
f 33/92/1 34/93/1 36/94/1 35/95/1
f 35/96/2 36/97/2 40/98/2 39/99/2
f 39/100/3 40/101/3 38/102/3 37/103/3
f 37/104/4 38/105/4 34/106/4 33/107/4
f 35/108/5 39/109/5 37/110/5 33/111/5
f 40/112/6 36/113/6 34/114/6 38/115/6
